<svg xmlns="http://www.w3.org/2000/svg" xmlns:xlink="http://www.w3.org/1999/xlink" width="534.387" height="839.454" viewBox="0 0 534.387 839.454">
  <defs>
    <linearGradient id="linear-gradient" x1="0.5" x2="0.5" y2="1" gradientUnits="objectBoundingBox">
      <stop offset="0" stop-color="#403f9f" stop-opacity="0"/>
      <stop offset="1" stop-opacity="0.4"/>
    </linearGradient>
    <linearGradient id="linear-gradient-2" x2="1" y2="1" gradientUnits="objectBoundingBox">
      <stop offset="0"/>
      <stop offset="1" stop-color="#403f9f" stop-opacity="0"/>
    </linearGradient>
    <linearGradient id="linear-gradient-3" x1="0.5" x2="0.453" y2="1" gradientUnits="objectBoundingBox">
      <stop offset="0" stop-color="#a7a7ee" stop-opacity="0"/>
      <stop offset="1" stop-color="#464d89" stop-opacity="0.502"/>
    </linearGradient>
    <linearGradient id="linear-gradient-4" x1="0.5" x2="0.5" y2="1" gradientUnits="objectBoundingBox">
      <stop offset="0" stop-color="#e6e6ef" stop-opacity="0"/>
      <stop offset="1" stop-opacity="0.102"/>
    </linearGradient>
  </defs>
  <g id="Flowers" transform="matrix(0.995, -0.105, 0.105, 0.995, -5.021, 50.917)">
    <g id="Secondary" transform="translate(-472 -403)">
      <g id="Flowers-2" data-name="Flowers" transform="translate(473 403)">
        <g id="Flower" transform="translate(0 39)">
          <g id="Groupe_32" data-name="Groupe 32">
            <g id="Groupe_31" data-name="Groupe 31">
              <path id="Tracé_77" data-name="Tracé 77" d="M279,632c-31.114-82.121-154.431-57.124-169-116-13.975-59.513,52.207-63.643,52-110,.207-46.36-135.33-36.626-149-84-13.419-47.329,36-58.188,89-75C155.727,230.9-14.889,146.068,1,61,17-23.811,148.246-23.275,171,82c23.6,105.13,44.784,137.66,77,95,31.987-42.251,121.187-26.944,83,94-37.945,121.551,72.333,83.508,89,162C435.684,512.38,315.749,536.353,279,632Z" fill="#4098d7"/>
              <path id="Tracé_78" data-name="Tracé 78" d="M279,632c-31.114-82.121-154.431-57.124-169-116-13.975-59.513,52.207-63.643,52-110,.207-46.36-135.33-36.626-149-84-13.419-47.329,36-58.188,89-75C155.727,230.9-14.889,146.068,1,61,17-23.811,148.246-23.275,171,82c23.6,105.13,44.784,137.66,77,95,31.987-42.251,121.187-26.944,83,94-37.945,121.551,72.333,83.508,89,162C435.684,512.38,315.749,536.353,279,632Z" fill="url(#linear-gradient)"/>
            </g>
            <path id="Sh" d="M404.434,401.56A66.651,66.651,0,0,1,420,433a69.94,69.94,0,0,1,1.322,17.195C401.522,471.864,366.663,494.186,308,516q-11.883-17.545-21.074-32.785C356.685,455.931,390.2,427.962,404.434,401.56Z" fill="url(#linear-gradient-2)"/>
          </g>
          <path id="Stem" d="M95.61,108.557a3.5,3.5,0,1,1,4.78-5.114c56.375,52.7,103.167,150.611,137.6,274.3C265.42,476.268,282.5,585.35,282.5,648a3.5,3.5,0,0,1-7,0c0-61.964-16.983-170.429-44.253-268.382C197.129,257.065,150.823,160.17,95.61,108.557Z" fill="#403f9f"/>
        </g>
        <g id="Flower-2" data-name="Flower" transform="translate(217)">
          <g id="Groupe_33" data-name="Groupe 33">
            <path id="Tracé_79" data-name="Tracé 79" d="M60,526C-18.173,410.625-6.483,372.29,20,343c26.3-29.142,41.709-22.687,54-46,12.187-23.3-49.06-72.374-27-106,21.9-32.624,77.729,24.89,78-13-.271-38.472-52.888-48.97-70-115C38.378-2.244,148.578-34.963,176,56c26.993,90.92-16.884,129.693,17,135,33.736,6.309,72.06-12.908,76,29,3.53,42.123-93.214,67.271-93,106C175.786,364.118,268.9,448.284,60,526Z" fill="#e0c3fc"/>
            <path id="Tracé_80" data-name="Tracé 80" d="M60,526C-18.173,410.625-6.483,372.29,20,343c26.3-29.142,41.709-22.687,54-46,12.187-23.3-49.06-72.374-27-106,21.9-32.624,77.729,24.89,78-13-.271-38.472-52.888-48.97-70-115C38.378-2.244,148.578-34.963,176,56c26.993,90.92-16.884,129.693,17,135,33.736,6.309,72.06-12.908,76,29,3.53,42.123-93.214,67.271-93,106C175.786,364.118,268.9,448.284,60,526Z" fill="url(#linear-gradient-3)"/>
          </g>
          <path id="Stem-2" data-name="Stem" d="M63.5,656.984a3.5,3.5,0,0,1-7,.031c-.043-9.658-.277-15.184-1.463-38.343-2.436-47.574-2.205-75.8,2.851-112.731,6.819-49.812,22.231-101.225,48.953-157.448,32.438-68.023,44.514-129.134,39.5-182.513-3.963-42.2-18.554-77.542-39.058-102.773a3.5,3.5,0,0,1,5.432-4.415c21.372,26.3,36.5,62.942,40.6,106.533,5.135,54.688-7.188,117.056-40.15,186.177C86.748,407.074,71.544,457.795,64.823,506.891c-4.983,36.4-5.211,64.251-2.8,111.423C63.22,641.6,63.456,647.17,63.5,656.984Z" fill="#a7a7ee"/>
        </g>
        <g id="Vase" transform="translate(238 648)">
          <g id="Groupe_34" data-name="Groupe 34">
            <path id="Tracé_81" data-name="Tracé 81" d="M3,0H77a3,3,0,0,1,3,3V167a3,3,0,0,1-3,3H3a3,3,0,0,1-3-3V3A3,3,0,0,1,3,0Z" fill="#e6e6ef"/>
            <path id="Tracé_82" data-name="Tracé 82" d="M3,0H77a3,3,0,0,1,3,3V167a3,3,0,0,1-3,3H3a3,3,0,0,1-3-3V3A3,3,0,0,1,3,0Z" fill="url(#linear-gradient-4)"/>
          </g>
          <path id="Plate" d="M18,40H62a3,3,0,0,1,3,3V87a3,3,0,0,1-3,3H18a3,3,0,0,1-3-3V43A3,3,0,0,1,18,40Z" fill="#f7f7f8" fill-rule="evenodd"/>
        </g>
      </g>
    </g>
  </g>
</svg>
