<svg xmlns="http://www.w3.org/2000/svg" xmlns:xlink="http://www.w3.org/1999/xlink" width="1385.665" height="1389.727" viewBox="0 0 1385.665 1389.727">
  <defs>
    <linearGradient id="linear-gradient" x1="0.5" x2="0.5" y2="1" gradientUnits="objectBoundingBox">
      <stop offset="0" stop-color="#403f9f" stop-opacity="0"/>
      <stop offset="1" stop-opacity="0.2"/>
    </linearGradient>
    <linearGradient id="linear-gradient-2" x1="0.5" x2="0.5" y2="1" gradientUnits="objectBoundingBox">
      <stop offset="0" stop-color="#a7a7ee" stop-opacity="0"/>
      <stop offset="1" stop-color="#4c55a0" stop-opacity="0.2"/>
    </linearGradient>
    <linearGradient id="linear-gradient-5" x1="0.648" y1="0.636" x2="-0.138" y2="0.5" gradientUnits="objectBoundingBox">
      <stop offset="0" stop-color="#464d89" stop-opacity="0.6"/>
      <stop offset="1" stop-color="#a7a7ee" stop-opacity="0"/>
    </linearGradient>
    <linearGradient id="linear-gradient-6" x1="0.5" x2="0.5" y2="1" gradientUnits="objectBoundingBox">
      <stop offset="0" stop-color="#ffc62c" stop-opacity="0"/>
      <stop offset="1" stop-color="#ff6663" stop-opacity="0.102"/>
    </linearGradient>
    <linearGradient id="linear-gradient-8" x2="1" y2="1" gradientUnits="objectBoundingBox">
      <stop offset="0" stop-color="#464d89" stop-opacity="0.302"/>
      <stop offset="1" stop-color="#a7a7ee" stop-opacity="0"/>
    </linearGradient>
    <linearGradient id="linear-gradient-10" x1="0.64" y1="0.23" x2="0" y2="1" gradientUnits="objectBoundingBox">
      <stop offset="0" stop-opacity="0.102"/>
      <stop offset="1" stop-color="#ff6663" stop-opacity="0"/>
    </linearGradient>
    <linearGradient id="linear-gradient-14" x1="1" x2="0" y2="1" gradientUnits="objectBoundingBox">
      <stop offset="0" stop-opacity="0.2"/>
      <stop offset="1" stop-color="#ff6663" stop-opacity="0"/>
    </linearGradient>
  </defs>
  <g id="girl_with_laptop" data-name="girl with laptop" transform="translate(-896 -4.43)">
    <path id="Tracé_51" data-name="Tracé 51" d="M4037.226,2401.131s-701.692-19.449-917.354,146.63,100.578,273.173,54.708,517.685-572.822,9.709-441.123,342.795c134.511,248.533,1364.6,381.917,1364.6,381.917Z" transform="translate(-1816.388 -2396)" fill="#e0c3fc"/>
    <g id="GirlandMacbook" transform="translate(716.759 266.166)">
      <g id="Primary" transform="translate(-1654 -1508)">
        <g id="Girl-and-Macbook" transform="translate(2165 1487)">
          <g id="Hair">
            <path id="Tracé_52" data-name="Tracé 52" d="M439,11c-49.582,11.494-103.875,54.555-75,178q29.077,122.8,247,221L546,66Q489.571-.975,439,11Z" fill="#464d89"/>
            <path id="Tracé_53" data-name="Tracé 53" d="M439,11c-49.582,11.494-103.875,54.555-75,178q29.077,122.8,247,221L546,66Q489.571-.975,439,11Z" fill="url(#linear-gradient)"/>
          </g>
          <g id="Hand-L" transform="translate(-315.736 655.983) rotate(-100)">
            <path id="Tracé_54" data-name="Tracé 54" d="M97.967,351.3c26.936-14.293,4.27,61.331,28.071,100.909q23.8,39.578,36.611,66.282l-30.583,52.893q-12.5-75.307-33.11-79.168c-20.609-3.861-32.81-21.28-24.015-49.579S71.032,365.6,97.967,351.3Z" fill="#a7a7ee"/>
            <path id="Tracé_55" data-name="Tracé 55" d="M97.967,351.3c26.936-14.293,4.27,61.331,28.071,100.909q23.8,39.578,36.611,66.282l-30.583,52.893q-12.5-75.307-33.11-79.168c-20.609-3.861-32.81-21.28-24.015-49.579S71.032,365.6,97.967,351.3Z" fill="url(#linear-gradient-2)"/>
          </g>
          <g id="Hand-L-2" data-name="Hand-L">
            <path id="Tracé_56" data-name="Tracé 56" d="M614.507,456.255c-16.829,52.152-99.211,38.524-153.28,38.524-16.774,0-116.944-114.2-123.225-114.2q-6.281,0-166.109,93.951-24.992.447-40.71-18.279T120.9,419.175Q294.39,279,338,279c43.613,0,154.333,115.534,175.426,115.534C569.256,394.534,631.336,404.1,614.507,456.255Z" fill="#464d89"/>
            <path id="Tracé_57" data-name="Tracé 57" d="M614.507,456.255c-16.829,52.152-99.211,38.524-153.28,38.524-16.774,0-116.944-114.2-123.225-114.2q-6.281,0-166.109,93.951-24.992.447-40.71-18.279T120.9,419.175Q294.39,279,338,279c43.613,0,154.333,115.534,175.426,115.534C569.256,394.534,631.336,404.1,614.507,456.255Z" fill="url(#linear-gradient)"/>
          </g>
          <g id="Hand-L-3" data-name="Hand-L">
            <path id="Tracé_58" data-name="Tracé 58" d="M495.718,242.049c-28.361,0-36.076,134.683-36.076,144.105s37.264,18.476,41.681,13.752,39.06-67.225,42.4-94.767S524.08,242.049,495.718,242.049Z" fill="#a7a7ee"/>
            <path id="Tracé_59" data-name="Tracé 59" d="M495.718,242.049c-28.361,0-36.076,134.683-36.076,144.105s37.264,18.476,41.681,13.752,39.06-67.225,42.4-94.767S524.08,242.049,495.718,242.049Z" fill="url(#linear-gradient-2)"/>
            <path id="Tracé_60" data-name="Tracé 60" d="M495.718,242.049c-28.361,0-36.076,134.683-36.076,144.105s37.264,18.476,41.681,13.752,39.06-67.225,42.4-94.767S524.08,242.049,495.718,242.049Z" fill="url(#linear-gradient-5)"/>
          </g>
          <g id="Hand-R">
            <path id="Tracé_61" data-name="Tracé 61" d="M352.724,432.371c-18.512,7.393-35.723,15.49-40.623,20.44s-6.911,15.543-6.911,25.043-.512,26.789,18.133,23.046,49.029-37.775,49.029-48.088S371.236,424.978,352.724,432.371Z" fill="#ffc62c"/>
            <path id="Tracé_62" data-name="Tracé 62" d="M352.724,432.371c-18.512,7.393-35.723,15.49-40.623,20.44s-6.911,15.543-6.911,25.043-.512,26.789,18.133,23.046,49.029-37.775,49.029-48.088S371.236,424.978,352.724,432.371Z" fill="url(#linear-gradient-6)"/>
          </g>
          <g id="Macbook" transform="translate(84 353)">
            <path id="Detail" d="M12.439,0H175.691L213,153H36.845a3.731,3.731,0,0,1-3.625-2.847L.357,15.387A12.437,12.437,0,0,1,12.439,0Z" fill="#d6dfea" fill-rule="evenodd"/>
            <circle id="Logo" cx="11" cy="11" r="11" transform="translate(90 66)" fill="#f2f5f9"/>
            <path id="Detail-2" data-name="Detail" d="M213.909,134.341H323.663a9.329,9.329,0,1,1,0,18.659H203.524V142.8L170.14,6.042A4.888,4.888,0,0,1,174.89,0a7.924,7.924,0,0,1,7.7,6.042Z" fill="#b6c5d9" fill-rule="evenodd"/>
          </g>
          <g id="Group" transform="translate(477.504 209)">
            <g id="Body">
              <path id="Tracé_63" data-name="Tracé 63" d="M3.238,51.131C3.238-56.182,147.465,14.264,155.5,203c7.576,189.443-188.208,51.895-133,17,28.862-18.485,16.7-68.694-4.833-89.586C-8.78,104.755,3.238,100.209,3.238,51.131Z" fill="#a7a7ee"/>
              <path id="Tracé_64" data-name="Tracé 64" d="M3.238,51.131C3.238-56.182,147.465,14.264,155.5,203c7.576,189.443-188.208,51.895-133,17,28.862-18.485,16.7-68.694-4.833-89.586C-8.78,104.755,3.238,100.209,3.238,51.131Z" fill="url(#linear-gradient-2)"/>
            </g>
            <path id="Sh" d="M149,148.582A349.946,349.946,0,0,1,155.5,203c1.876,46.9-8.714,73.763-24.875,87.1a205.812,205.812,0,0,1-65.593,3.067,115.4,115.4,0,0,1-37.121-26.073Q44.415,126,106.34,126C122.873,126,137.414,134.927,149,148.582Z" fill-rule="evenodd" fill="url(#linear-gradient-8)"/>
            <ellipse id="Detail-3" data-name="Detail" cx="33" cy="36.5" rx="33" ry="36.5" transform="translate(-36 -27)" fill="#fff"/>
            <ellipse id="Detail-4" data-name="Detail" cx="33" cy="36.5" rx="33" ry="36.5" transform="translate(13 -11)" fill="#fff"/>
          </g>
          <g id="Neck" transform="translate(460 147)">
            <g id="Groupe_26" data-name="Groupe 26">
              <path id="Tracé_65" data-name="Tracé 65" d="M.868,35.47,55.016.187,73.639,32.008A44.31,44.31,0,0,1,68.3,84.067,24.531,24.531,0,0,1,29.319,80.7Z" fill="#ffc62c"/>
              <path id="Tracé_66" data-name="Tracé 66" d="M.868,35.47,55.016.187,73.639,32.008A44.31,44.31,0,0,1,68.3,84.067,24.531,24.531,0,0,1,29.319,80.7Z" fill="url(#linear-gradient-6)"/>
            </g>
            <path id="Sh-2" data-name="Sh" d="M76.731,38.419a74.71,74.71,0,0,1-45.2,45.271A24.531,24.531,0,0,1,29.319,80.7L.868,35.47,55.016.187,73.639,32.008A44.394,44.394,0,0,1,76.731,38.419Z" fill="url(#linear-gradient-10)"/>
          </g>
          <g id="Hand-R-2" data-name="Hand-R">
            <path id="Tracé_67" data-name="Tracé 67" d="M562.749,219.908c-32.907,0-61.244,116.51-61.244,128.359q0,11.849-164.326,90.635,10.035,2.178,16.21,15.312t14.188,14.354q184.908-63.767,195.173-76.7c10.265-12.936,39.442-54.4,40.514-105.457S595.656,219.908,562.749,219.908Z" fill="#a7a7ee"/>
            <path id="Tracé_68" data-name="Tracé 68" d="M562.749,219.908c-32.907,0-61.244,116.51-61.244,128.359q0,11.849-164.326,90.635,10.035,2.178,16.21,15.312t14.188,14.354q184.908-63.767,195.173-76.7c10.265-12.936,39.442-54.4,40.514-105.457S595.656,219.908,562.749,219.908Z" fill="url(#linear-gradient-2)"/>
          </g>
          <path id="Line" d="M562.749,217.408a1.5,1.5,0,0,1,0,3c-13.606,0-28.2,22.263-41.553,58.751-9.539,26.076-18.19,60.424-18.19,68.107,0,4.856-12.474,13.7-38.606,28.146q-30.888,17.071-86.951,44.111l-.694.335c-8.256,3.98-9.7,1.347-1.54-2.587l.752-.363q56.116-27.063,86.982-44.122c24.31-13.436,37.057-22.477,37.057-25.52,0-8.128,8.721-42.754,18.373-69.138C532.206,240.329,547.237,217.408,562.749,217.408Z" fill="#fff"/>
          <g id="Hair-2" data-name="Hair">
            <path id="Tracé_69" data-name="Tracé 69" d="M528,166c-20.125,48.046-19.6,110.113,6,168,25.94,58.041,170.472,122.148,127-14-44.957-136.657-29.011-184.364-64-248C561.938,9.115,504.554-18.065,425,15,346.96,48.3,547.007,118.01,528,166Z" fill="#464d89"/>
            <path id="Tracé_70" data-name="Tracé 70" d="M528,166c-20.125,48.046-19.6,110.113,6,168,25.94,58.041,170.472,122.148,127-14-44.957-136.657-29.011-184.364-64-248C561.938,9.115,504.554-18.065,425,15,346.96,48.3,547.007,118.01,528,166Z" fill="url(#linear-gradient)"/>
          </g>
          <g id="Face">
            <path id="Tracé_71" data-name="Tracé 71" d="M418,86c1.668,0,46.3,27.5,106,31,6.349-4.887,21.888-4.887,23,16,.843,14.825-4.227,30.557-17,32-8.111,27.874-20.968,50.616-55,56s-55.562-17.956-63-33c-9.287-14.831-17.627-73.877-17-80C404.989,103.158,415.712,86,418,86Z" fill="#ffc62c"/>
            <path id="Tracé_72" data-name="Tracé 72" d="M418,86c1.668,0,46.3,27.5,106,31,6.349-4.887,21.888-4.887,23,16,.843,14.825-4.227,30.557-17,32-8.111,27.874-20.968,50.616-55,56s-55.562-17.956-63-33c-9.287-14.831-17.627-73.877-17-80C404.989,103.158,415.712,86,418,86Z" fill="url(#linear-gradient-6)"/>
          </g>
          <circle id="Sh-3" data-name="Sh" cx="8.762" cy="8.762" r="8.762" transform="translate(522 131)" fill="url(#linear-gradient-14)"/>
          <g id="Leg-R">
            <path id="Tracé_73" data-name="Tracé 73" d="M240.84,776.314c-20.374-30.318,66.073-58.9,68.522-88.768q2.448-29.873,6.889-33.966l37.73-4.5q.106,40.019,9.061,59.287c8.955,19.268-3.1,40.205-33.878,41.8S261.214,806.632,240.84,776.314Z" fill="#a7a7ee"/>
            <path id="Tracé_74" data-name="Tracé 74" d="M240.84,776.314c-20.374-30.318,66.073-58.9,68.522-88.768q2.448-29.873,6.889-33.966l37.73-4.5q.106,40.019,9.061,59.287c8.955,19.268-3.1,40.205-33.878,41.8S261.214,806.632,240.84,776.314Z" fill="url(#linear-gradient-2)"/>
          </g>
          <g id="Leg-R-2" data-name="Leg-R">
            <path id="Tracé_75" data-name="Tracé 75" d="M547.017,539H424.88l-59.64,134.049Q355.9,683.82,334.226,683.82t-27.267-10.773Q319.938,448.3,381.968,434.662q143.238-31.491,250.469-13.567Q640.741,539,547.017,539Z" fill="#464d89"/>
            <path id="Tracé_76" data-name="Tracé 76" d="M547.017,539H424.88l-59.64,134.049Q355.9,683.82,334.226,683.82t-27.267-10.773Q319.938,448.3,381.968,434.662q143.238-31.491,250.469-13.567Q640.741,539,547.017,539Z" fill="url(#linear-gradient)"/>
          </g>
        </g>
      </g>
    </g>
  </g>
</svg>
