<svg id="Google__G__Logo" xmlns="http://www.w3.org/2000/svg" xmlns:xlink="http://www.w3.org/1999/xlink" width="54.058" height="57.983" viewBox="0 0 54.058 57.983">
  <defs>
    <clipPath id="clip-path">
      <path id="Tracé_29" data-name="Tracé 29" d="M55.429,25.72H29.657v11.2H44.492c-1.383,7.116-7.166,11.2-14.834,11.2-9.052,0-16.343-7.643-16.343-17.131S20.606,13.86,29.657,13.86A15.548,15.548,0,0,1,39.84,17.682l8.046-8.434A26.822,26.822,0,0,0,29.657,2C14.32,2,2,14.914,2,30.992S14.32,59.983,29.657,59.983c13.829,0,26.4-10.542,26.4-28.992A25.153,25.153,0,0,0,55.429,25.72Z" transform="translate(-2 -2)"/>
    </clipPath>
  </defs>
  <g id="Groupe_20" data-name="Groupe 20" transform="translate(0 0)" clip-path="url(#clip-path)">
    <path id="Tracé_28" data-name="Tracé 28" d="M0,45.263V11L21.372,28.131Z" transform="translate(-2.514 0.86)" fill="#fbbc05"/>
  </g>
  <g id="Groupe_21" data-name="Groupe 21" transform="translate(0 0)" clip-path="url(#clip-path)">
    <path id="Tracé_30" data-name="Tracé 30" d="M0,14.5,21.372,31.627l8.8-8.039,30.172-5.139V0H0Z" transform="translate(-2.514 -2.636)" fill="#ea4335"/>
  </g>
  <g id="Groupe_22" data-name="Groupe 22" transform="translate(0 0)" clip-path="url(#clip-path)">
    <path id="Tracé_32" data-name="Tracé 32" d="M0,48.759,37.715,18.449l9.932,1.318L60.344,0V63.254H0Z" transform="translate(-2.514 -2.636)" fill="#34a853"/>
  </g>
  <g id="Groupe_23" data-name="Groupe 23" transform="translate(0 0)" clip-path="url(#clip-path)">
    <path id="Tracé_34" data-name="Tracé 34" d="M57,59.759,18.029,28.131,13,24.178,57,11Z" transform="translate(0.829 0.86)" fill="#4285f4"/>
  </g>
</svg>
