<svg xmlns="http://www.w3.org/2000/svg" xmlns:xlink="http://www.w3.org/1999/xlink" width="1687.444" height="990.272" viewBox="0 0 1687.444 990.272">
  <defs>
    <linearGradient id="linear-gradient" x1="0.237" y1="1.227" x2="0.976" y2="0.098" gradientUnits="objectBoundingBox">
      <stop offset="0" stop-color="#c69df8"/>
      <stop offset="1" stop-color="#b0c4fb"/>
    </linearGradient>
  </defs>
  <g id="Groupe_105" data-name="Groupe 105" transform="translate(-162 -81.728)">
    <circle id="Ellipse_6" data-name="Ellipse 6" cx="37" cy="37" r="37" transform="translate(162 226)" fill="#f8f8f8"/>
    <g id="lastSpot">
      <path id="Tracé_4" data-name="Tracé 4" d="M1640.738,239.3c51.83-30.421,128.557-102.094,128.557-102.094l12.945,350.81s-665.5-18.759-768.4,17.445c-171.79,60.441,160.338,85.329,30.54-67.552S1406.212,376.952,1640.738,239.3Z" transform="matrix(0.999, 0.035, -0.035, 0.999, 71.963, -86.752)" fill="none" stroke="#302929" stroke-width="2"/>
      <path id="Tracé_3" data-name="Tracé 3" d="M1322.538,237.825c-174.018,60.906-194.32,217.523-104.411,345.136s310.491-1.695,511.254,67.842C1767.927,664.154,1833,697.226,1833,697.226l-9.023-570.155S1407.2,208.192,1322.538,237.825Z" fill="url(#linear-gradient)"/>
    </g>
    <g id="contact_infos" data-name="contact infos">
      <circle id="Ellipse_1" data-name="Ellipse 1" cx="285" cy="285" r="285" transform="translate(911 502)" fill="#fbfbfb"/>
    </g>
  </g>
</svg>
