<svg xmlns="http://www.w3.org/2000/svg" xmlns:xlink="http://www.w3.org/1999/xlink" width="2367.243" height="1381.989" viewBox="0 0 2367.243 1381.989">
  <defs>
    <linearGradient id="linear-gradient" x1="0.5" x2="0.5" y2="1" gradientUnits="objectBoundingBox">
      <stop offset="0" stop-color="#403f9f" stop-opacity="0"/>
      <stop offset="1" stop-opacity="0.4"/>
    </linearGradient>
    <linearGradient id="linear-gradient-2" x2="1" y2="1" gradientUnits="objectBoundingBox">
      <stop offset="0"/>
      <stop offset="1" stop-color="#403f9f" stop-opacity="0"/>
    </linearGradient>
    <linearGradient id="linear-gradient-3" x1="0.5" x2="0.453" y2="1" gradientUnits="objectBoundingBox">
      <stop offset="0" stop-color="#a7a7ee" stop-opacity="0"/>
      <stop offset="1" stop-color="#464d89" stop-opacity="0.502"/>
    </linearGradient>
    <linearGradient id="linear-gradient-4" x1="0.5" x2="0.5" y2="1" gradientUnits="objectBoundingBox">
      <stop offset="0" stop-color="#e6e6ef" stop-opacity="0"/>
      <stop offset="1" stop-opacity="0.102"/>
    </linearGradient>
    <linearGradient id="linear-gradient-5" x1="0.5" x2="0.5" y2="1" gradientUnits="objectBoundingBox">
      <stop offset="0" stop-color="#403f9f" stop-opacity="0"/>
      <stop offset="1" stop-opacity="0.2"/>
    </linearGradient>
    <linearGradient id="linear-gradient-6" x1="0.5" x2="0.5" y2="1" gradientUnits="objectBoundingBox">
      <stop offset="0" stop-color="#a7a7ee" stop-opacity="0"/>
      <stop offset="1" stop-color="#4c55a0" stop-opacity="0.2"/>
    </linearGradient>
    <linearGradient id="linear-gradient-9" x1="0.648" y1="0.636" x2="-0.138" y2="0.5" gradientUnits="objectBoundingBox">
      <stop offset="0" stop-color="#464d89" stop-opacity="0.6"/>
      <stop offset="1" stop-color="#a7a7ee" stop-opacity="0"/>
    </linearGradient>
    <linearGradient id="linear-gradient-10" x1="0.5" x2="0.5" y2="1" gradientUnits="objectBoundingBox">
      <stop offset="0" stop-color="#ffc62c" stop-opacity="0"/>
      <stop offset="1" stop-color="#ff6663" stop-opacity="0.102"/>
    </linearGradient>
    <linearGradient id="linear-gradient-12" x2="1" y2="1" gradientUnits="objectBoundingBox">
      <stop offset="0" stop-color="#464d89" stop-opacity="0.302"/>
      <stop offset="1" stop-color="#a7a7ee" stop-opacity="0"/>
    </linearGradient>
    <linearGradient id="linear-gradient-14" x1="0.64" y1="0.23" x2="0" y2="1" gradientUnits="objectBoundingBox">
      <stop offset="0" stop-opacity="0.102"/>
      <stop offset="1" stop-color="#ff6663" stop-opacity="0"/>
    </linearGradient>
    <linearGradient id="linear-gradient-18" x1="1" x2="0" y2="1" gradientUnits="objectBoundingBox">
      <stop offset="0" stop-opacity="0.2"/>
      <stop offset="1" stop-color="#ff6663" stop-opacity="0"/>
    </linearGradient>
  </defs>
  <g id="Groupe_99" data-name="Groupe 99" transform="translate(53 -12.169)">
    <g id="Flowers" transform="matrix(0.995, -0.105, 0.105, 0.995, 40.766, 238.75)" opacity="0.6">
      <g id="Secondary" transform="translate(-472 -403)">
        <g id="Flowers-2" data-name="Flowers" transform="translate(473 403)">
          <g id="Flower" transform="translate(0 39)">
            <g id="Groupe_32" data-name="Groupe 32">
              <g id="Groupe_31" data-name="Groupe 31">
                <path id="Tracé_77" data-name="Tracé 77" d="M279,632c-31.114-82.121-154.431-57.124-169-116-13.975-59.513,52.207-63.643,52-110,.207-46.36-135.33-36.626-149-84-13.419-47.329,36-58.188,89-75C155.727,230.9-14.889,146.068,1,61,17-23.811,148.246-23.275,171,82c23.6,105.13,44.784,137.66,77,95,31.987-42.251,121.187-26.944,83,94-37.945,121.551,72.333,83.508,89,162C435.684,512.38,315.749,536.353,279,632Z" fill="#4098d7"/>
                <path id="Tracé_78" data-name="Tracé 78" d="M279,632c-31.114-82.121-154.431-57.124-169-116-13.975-59.513,52.207-63.643,52-110,.207-46.36-135.33-36.626-149-84-13.419-47.329,36-58.188,89-75C155.727,230.9-14.889,146.068,1,61,17-23.811,148.246-23.275,171,82c23.6,105.13,44.784,137.66,77,95,31.987-42.251,121.187-26.944,83,94-37.945,121.551,72.333,83.508,89,162C435.684,512.38,315.749,536.353,279,632Z" fill="url(#linear-gradient)"/>
              </g>
              <path id="Sh" d="M404.434,401.56A66.651,66.651,0,0,1,420,433a69.94,69.94,0,0,1,1.322,17.195C401.522,471.864,366.663,494.186,308,516q-11.883-17.545-21.074-32.785C356.685,455.931,390.2,427.962,404.434,401.56Z" fill="url(#linear-gradient-2)"/>
            </g>
            <path id="Stem" d="M95.61,108.557a3.5,3.5,0,1,1,4.78-5.114c56.375,52.7,103.167,150.611,137.6,274.3C265.42,476.268,282.5,585.35,282.5,648a3.5,3.5,0,0,1-7,0c0-61.964-16.983-170.429-44.253-268.382C197.129,257.065,150.823,160.17,95.61,108.557Z" fill="#403f9f"/>
          </g>
          <g id="Flower-2" data-name="Flower" transform="translate(217)">
            <g id="Groupe_33" data-name="Groupe 33">
              <path id="Tracé_79" data-name="Tracé 79" d="M60,526C-18.173,410.625-6.483,372.29,20,343c26.3-29.142,41.709-22.687,54-46,12.187-23.3-49.06-72.374-27-106,21.9-32.624,77.729,24.89,78-13-.271-38.472-52.888-48.97-70-115C38.378-2.244,148.578-34.963,176,56c26.993,90.92-16.884,129.693,17,135,33.736,6.309,72.06-12.908,76,29,3.53,42.123-93.214,67.271-93,106C175.786,364.118,268.9,448.284,60,526Z" fill="#e0c3fc"/>
              <path id="Tracé_80" data-name="Tracé 80" d="M60,526C-18.173,410.625-6.483,372.29,20,343c26.3-29.142,41.709-22.687,54-46,12.187-23.3-49.06-72.374-27-106,21.9-32.624,77.729,24.89,78-13-.271-38.472-52.888-48.97-70-115C38.378-2.244,148.578-34.963,176,56c26.993,90.92-16.884,129.693,17,135,33.736,6.309,72.06-12.908,76,29,3.53,42.123-93.214,67.271-93,106C175.786,364.118,268.9,448.284,60,526Z" fill="url(#linear-gradient-3)"/>
            </g>
            <path id="Stem-2" data-name="Stem" d="M63.5,656.984a3.5,3.5,0,0,1-7,.031c-.043-9.658-.277-15.184-1.463-38.343-2.436-47.574-2.205-75.8,2.851-112.731,6.819-49.812,22.231-101.225,48.953-157.448,32.438-68.023,44.514-129.134,39.5-182.513-3.963-42.2-18.554-77.542-39.058-102.773a3.5,3.5,0,0,1,5.432-4.415c21.372,26.3,36.5,62.942,40.6,106.533,5.135,54.688-7.188,117.056-40.15,186.177C86.748,407.074,71.544,457.795,64.823,506.891c-4.983,36.4-5.211,64.251-2.8,111.423C63.22,641.6,63.456,647.17,63.5,656.984Z" fill="#a7a7ee"/>
          </g>
          <g id="Vase" transform="translate(238 648)">
            <g id="Groupe_34" data-name="Groupe 34">
              <path id="Tracé_81" data-name="Tracé 81" d="M3,0H77a3,3,0,0,1,3,3V167a3,3,0,0,1-3,3H3a3,3,0,0,1-3-3V3A3,3,0,0,1,3,0Z" fill="#e6e6ef"/>
              <path id="Tracé_82" data-name="Tracé 82" d="M3,0H77a3,3,0,0,1,3,3V167a3,3,0,0,1-3,3H3a3,3,0,0,1-3-3V3A3,3,0,0,1,3,0Z" fill="url(#linear-gradient-4)"/>
            </g>
            <path id="Plate" d="M18,40H62a3,3,0,0,1,3,3V87a3,3,0,0,1-3,3H18a3,3,0,0,1-3-3V43A3,3,0,0,1,18,40Z" fill="#f7f7f8" fill-rule="evenodd"/>
          </g>
        </g>
      </g>
    </g>
    <text id="_" data-name="  " transform="translate(-53 792)" fill="rgba(3,26,43,0.15)" font-size="180" font-family="Arial-BoldMT, Arial" font-weight="700"><tspan x="0" y="163" xml:space="preserve">  </tspan></text>
    <g id="girl_with_laptop" data-name="girl with laptop">
      <path id="Tracé_51" data-name="Tracé 51" d="M4130.631,2410s-780.448-28.318-1001.179,137.76,102.943,273.173,55.995,517.685-586.29,9.709-451.494,342.795c137.673,248.533,1396.678,381.917,1396.678,381.917Z" transform="translate(-1816.388 -2396)" fill="#e0c3fc"/>
      <g id="GirlandMacbook" transform="translate(1243.089 246)">
        <g id="Primary">
          <g id="Girl-and-Macbook" transform="translate(0 0)">
            <g id="Hair" transform="translate(355.703 8.349)">
              <path id="Tracé_52" data-name="Tracé 52" d="M439,11c-49.582,11.494-103.875,54.555-75,178q29.077,122.8,247,221L546,66Q489.571-.975,439,11Z" transform="translate(-355.943 -9.184)" fill="#464d89"/>
              <path id="Tracé_53" data-name="Tracé 53" d="M439,11c-49.582,11.494-103.875,54.555-75,178q29.077,122.8,247,221L546,66Q489.571-.975,439,11Z" transform="translate(-355.943 -9.184)" fill="url(#linear-gradient-5)"/>
            </g>
            <g id="Hand-L" transform="translate(15.733 523.497) rotate(-100)">
              <path id="Tracé_54" data-name="Tracé 54" d="M25.918,1.773C52.853-12.52,30.187,63.1,53.988,102.682q23.8,39.578,36.611,66.282L60.017,221.856q-12.5-75.307-33.11-79.168C6.3,138.827-5.9,121.408,2.891,93.109S-1.018,16.066,25.918,1.773Z" fill="#a7a7ee"/>
              <path id="Tracé_55" data-name="Tracé 55" d="M25.918,1.773C52.853-12.52,30.187,63.1,53.988,102.682q23.8,39.578,36.611,66.282L60.017,221.856q-12.5-75.307-33.11-79.168C6.3,138.827-5.9,121.408,2.891,93.109S-1.018,16.066,25.918,1.773Z" fill="url(#linear-gradient-6)"/>
            </g>
            <g id="Hand-L-2" data-name="Hand-L" transform="translate(119.263 278.166)">
              <path id="Tracé_56" data-name="Tracé 56" d="M614.507,456.255c-16.829,52.152-99.211,38.524-153.28,38.524-16.774,0-116.944-114.2-123.225-114.2q-6.281,0-166.109,93.951-24.992.447-40.71-18.279T120.9,419.175Q294.39,279,338,279c43.613,0,154.333,115.534,175.426,115.534C569.256,394.534,631.336,404.1,614.507,456.255Z" transform="translate(-119.504 -279)" fill="#464d89"/>
              <path id="Tracé_57" data-name="Tracé 57" d="M614.507,456.255c-16.829,52.152-99.211,38.524-153.28,38.524-16.774,0-116.944-114.2-123.225-114.2q-6.281,0-166.109,93.951-24.992.447-40.71-18.279T120.9,419.175Q294.39,279,338,279c43.613,0,154.333,115.534,175.426,115.534C569.256,394.534,631.336,404.1,614.507,456.255Z" transform="translate(-119.504 -279)" fill="url(#linear-gradient-5)"/>
            </g>
            <g id="Hand-L-3" data-name="Hand-L" transform="translate(459.401 241.215)">
              <path id="Tracé_58" data-name="Tracé 58" d="M495.718,242.049c-28.361,0-36.076,134.683-36.076,144.105s37.264,18.476,41.681,13.752,39.06-67.225,42.4-94.767S524.08,242.049,495.718,242.049Z" transform="translate(-459.642 -242.049)" fill="#a7a7ee"/>
              <path id="Tracé_59" data-name="Tracé 59" d="M495.718,242.049c-28.361,0-36.076,134.683-36.076,144.105s37.264,18.476,41.681,13.752,39.06-67.225,42.4-94.767S524.08,242.049,495.718,242.049Z" transform="translate(-459.642 -242.049)" fill="url(#linear-gradient-6)"/>
              <path id="Tracé_60" data-name="Tracé 60" d="M495.718,242.049c-28.361,0-36.076,134.683-36.076,144.105s37.264,18.476,41.681,13.752,39.06-67.225,42.4-94.767S524.08,242.049,495.718,242.049Z" transform="translate(-459.642 -242.049)" fill="url(#linear-gradient-9)"/>
            </g>
            <g id="Hand-R" transform="translate(304.947 429.768)">
              <path id="Tracé_61" data-name="Tracé 61" d="M352.724,432.371c-18.512,7.393-35.723,15.49-40.623,20.44s-6.911,15.543-6.911,25.043-.512,26.789,18.133,23.046,49.029-37.775,49.029-48.088S371.236,424.978,352.724,432.371Z" transform="translate(-305.188 -430.602)" fill="#ffc62c"/>
              <path id="Tracé_62" data-name="Tracé 62" d="M352.724,432.371c-18.512,7.393-35.723,15.49-40.623,20.44s-6.911,15.543-6.911,25.043-.512,26.789,18.133,23.046,49.029-37.775,49.029-48.088S371.236,424.978,352.724,432.371Z" transform="translate(-305.188 -430.602)" fill="url(#linear-gradient-10)"/>
            </g>
            <g id="Macbook" transform="translate(83.759 352.166)">
              <path id="Detail" d="M12.439,0H175.691L213,153H36.845a3.731,3.731,0,0,1-3.625-2.847L.357,15.387A12.437,12.437,0,0,1,12.439,0Z" transform="translate(0 0)" fill="#d6dfea" fill-rule="evenodd"/>
              <circle id="Logo" cx="11" cy="11" r="11" transform="translate(90 66)" fill="#f2f5f9"/>
              <path id="Detail-2" data-name="Detail" d="M213.909,134.341H323.663a9.329,9.329,0,1,1,0,18.659H203.524V142.8L170.14,6.042A4.888,4.888,0,0,1,174.89,0a7.924,7.924,0,0,1,7.7,6.042Z" transform="translate(0 0)" fill="#b6c5d9" fill-rule="evenodd"/>
            </g>
            <g id="Group" transform="translate(441.263 181.166)">
              <g id="Body" transform="translate(36.513 27.769)">
                <path id="Tracé_63" data-name="Tracé 63" d="M3.238,51.131C3.238-56.182,147.465,14.264,155.5,203c7.576,189.443-188.208,51.895-133,17,28.862-18.485,16.7-68.694-4.833-89.586C-8.78,104.755,3.238,100.209,3.238,51.131Z" transform="translate(-0.513 -0.769)" fill="#a7a7ee"/>
                <path id="Tracé_64" data-name="Tracé 64" d="M3.238,51.131C3.238-56.182,147.465,14.264,155.5,203c7.576,189.443-188.208,51.895-133,17,28.862-18.485,16.7-68.694-4.833-89.586C-8.78,104.755,3.238,100.209,3.238,51.131Z" transform="translate(-0.513 -0.769)" fill="url(#linear-gradient-6)"/>
              </g>
              <path id="Sh-2" data-name="Sh" d="M149,148.582A349.946,349.946,0,0,1,155.5,203c1.876,46.9-8.714,73.763-24.875,87.1a205.812,205.812,0,0,1-65.593,3.067,115.4,115.4,0,0,1-37.121-26.073Q44.415,126,106.34,126C122.873,126,137.414,134.927,149,148.582Z" transform="translate(36 27)" fill-rule="evenodd" fill="url(#linear-gradient-12)"/>
              <ellipse id="Detail-3" data-name="Detail" cx="33" cy="36.5" rx="33" ry="36.5" fill="#fff"/>
              <ellipse id="Detail-4" data-name="Detail" cx="33" cy="36.5" rx="33" ry="36.5" transform="translate(49 16)" fill="#fff"/>
            </g>
            <g id="Neck" transform="translate(460.628 146.352)">
              <g id="Groupe_26" data-name="Groupe 26">
                <path id="Tracé_65" data-name="Tracé 65" d="M.868,35.47,55.016.187,73.639,32.008A44.31,44.31,0,0,1,68.3,84.067,24.531,24.531,0,0,1,29.319,80.7Z" transform="translate(-0.868 -0.187)" fill="#ffc62c"/>
                <path id="Tracé_66" data-name="Tracé 66" d="M.868,35.47,55.016.187,73.639,32.008A44.31,44.31,0,0,1,68.3,84.067,24.531,24.531,0,0,1,29.319,80.7Z" transform="translate(-0.868 -0.187)" fill="url(#linear-gradient-10)"/>
              </g>
              <path id="Sh-3" data-name="Sh" d="M76.731,38.419a74.71,74.71,0,0,1-45.2,45.271A24.531,24.531,0,0,1,29.319,80.7L.868,35.47,55.016.187,73.639,32.008A44.394,44.394,0,0,1,76.731,38.419Z" transform="translate(-0.868 -0.187)" fill="url(#linear-gradient-14)"/>
            </g>
            <g id="Hand-R-2" data-name="Hand-R" transform="translate(336.938 219.074)">
              <path id="Tracé_67" data-name="Tracé 67" d="M562.749,219.908c-32.907,0-61.244,116.51-61.244,128.359q0,11.849-164.326,90.635,10.035,2.178,16.21,15.312t14.188,14.354q184.908-63.767,195.173-76.7c10.265-12.936,39.442-54.4,40.514-105.457S595.656,219.908,562.749,219.908Z" transform="translate(-337.179 -219.908)" fill="#a7a7ee"/>
              <path id="Tracé_68" data-name="Tracé 68" d="M562.749,219.908c-32.907,0-61.244,116.51-61.244,128.359q0,11.849-164.326,90.635,10.035,2.178,16.21,15.312t14.188,14.354q184.908-63.767,195.173-76.7c10.265-12.936,39.442-54.4,40.514-105.457S595.656,219.908,562.749,219.908Z" transform="translate(-337.179 -219.908)" fill="url(#linear-gradient-6)"/>
            </g>
            <path id="Line" d="M562.749,217.408a1.5,1.5,0,0,1,0,3c-13.606,0-28.2,22.263-41.553,58.751-9.539,26.076-18.19,60.424-18.19,68.107,0,4.856-12.474,13.7-38.606,28.146q-30.888,17.071-86.951,44.111l-.694.335c-8.256,3.98-9.7,1.347-1.54-2.587l.752-.363q56.116-27.063,86.982-44.122c24.31-13.436,37.057-22.477,37.057-25.52,0-8.128,8.721-42.754,18.373-69.138C532.206,240.329,547.237,217.408,562.749,217.408Z" transform="translate(-0.241 -0.834)" fill="#fff"/>
            <g id="Hair-2" data-name="Hair" transform="translate(406.609)">
              <path id="Tracé_69" data-name="Tracé 69" d="M528,166c-20.125,48.046-19.6,110.113,6,168,25.94,58.041,170.472,122.148,127-14-44.957-136.657-29.011-184.364-64-248C561.938,9.115,504.554-18.065,425,15,346.96,48.3,547.007,118.01,528,166Z" transform="translate(-406.85 -0.834)" fill="#464d89"/>
              <path id="Tracé_70" data-name="Tracé 70" d="M528,166c-20.125,48.046-19.6,110.113,6,168,25.94,58.041,170.472,122.148,127-14-44.957-136.657-29.011-184.364-64-248C561.938,9.115,504.554-18.065,425,15,346.96,48.3,547.007,118.01,528,166Z" transform="translate(-406.85 -0.834)" fill="url(#linear-gradient-5)"/>
            </g>
            <g id="Face" transform="translate(394.726 85.166)">
              <path id="Tracé_71" data-name="Tracé 71" d="M418,86c1.668,0,46.3,27.5,106,31,6.349-4.887,21.888-4.887,23,16,.843,14.825-4.227,30.557-17,32-8.111,27.874-20.968,50.616-55,56s-55.562-17.956-63-33c-9.287-14.831-17.627-73.877-17-80C404.989,103.158,415.712,86,418,86Z" transform="translate(-394.967 -86)" fill="#ffc62c"/>
              <path id="Tracé_72" data-name="Tracé 72" d="M418,86c1.668,0,46.3,27.5,106,31,6.349-4.887,21.888-4.887,23,16,.843,14.825-4.227,30.557-17,32-8.111,27.874-20.968,50.616-55,56s-55.562-17.956-63-33c-9.287-14.831-17.627-73.877-17-80C404.989,103.158,415.712,86,418,86Z" transform="translate(-394.967 -86)" fill="url(#linear-gradient-10)"/>
            </g>
            <circle id="Sh-4" data-name="Sh" cx="8.762" cy="8.762" r="8.762" transform="translate(521.759 130.166)" fill="url(#linear-gradient-18)"/>
            <g id="Leg-R" transform="translate(237.494 648.243)">
              <path id="Tracé_73" data-name="Tracé 73" d="M240.84,776.314c-20.374-30.318,66.073-58.9,68.522-88.768q2.448-29.873,6.889-33.966l37.73-4.5q.106,40.019,9.061,59.287c8.955,19.268-3.1,40.205-33.878,41.8S261.214,806.632,240.84,776.314Z" transform="translate(-237.735 -649.077)" fill="#a7a7ee"/>
              <path id="Tracé_74" data-name="Tracé 74" d="M240.84,776.314c-20.374-30.318,66.073-58.9,68.522-88.768q2.448-29.873,6.889-33.966l37.73-4.5q.106,40.019,9.061,59.287c8.955,19.268-3.1,40.205-33.878,41.8S261.214,806.632,240.84,776.314Z" transform="translate(-237.735 -649.077)" fill="url(#linear-gradient-6)"/>
            </g>
            <g id="Leg-R-2" data-name="Leg-R" transform="translate(306.718 413.759)">
              <path id="Tracé_75" data-name="Tracé 75" d="M547.017,539H424.88l-59.64,134.049Q355.9,683.82,334.226,683.82t-27.267-10.773Q319.938,448.3,381.968,434.662q143.238-31.491,250.469-13.567Q640.741,539,547.017,539Z" transform="translate(-306.959 -414.593)" fill="#464d89"/>
              <path id="Tracé_76" data-name="Tracé 76" d="M547.017,539H424.88l-59.64,134.049Q355.9,683.82,334.226,683.82t-27.267-10.773Q319.938,448.3,381.968,434.662q143.238-31.491,250.469-13.567Q640.741,539,547.017,539Z" transform="translate(-306.959 -414.593)" fill="url(#linear-gradient-5)"/>
            </g>
          </g>
        </g>
      </g>
    </g>
  </g>
</svg>
