<svg xmlns="http://www.w3.org/2000/svg" width="84.904" height="84.904" viewBox="0 0 84.904 84.904">
  <g id="le-tour-de-france-1" transform="translate(0)">
    <path id="Tracé_37" data-name="Tracé 37" d="M0,0H84.9V84.9H0Z" fill="#fff" fill-rule="evenodd"/>
    <path id="Tracé_38" data-name="Tracé 38" d="M141.02,81.588a10.472,10.472,0,0,0,4.971,1.657,16.5,16.5,0,0,0,5.608-.509,12.141,12.141,0,0,0,4.461-2.8,7.453,7.453,0,0,0,1.912-4.589,10.854,10.854,0,0,0-.636-4.843,11.21,11.21,0,0,0-2.422-4.334,8.535,8.535,0,0,0-3.57-2.294,11.755,11.755,0,0,0-6.628.128A11.207,11.207,0,0,0,140,66.676a13.364,13.364,0,0,0-2.422,4.588,11.819,11.819,0,0,0,.383,5.863A7.9,7.9,0,0,0,141.02,81.588Z" transform="translate(-76.858 -35.503)" fill="#e8ac3a" fill-rule="evenodd"/>
    <path id="Tracé_39" data-name="Tracé 39" d="M43.173,45.225l-2.677.637a14.543,14.543,0,0,0-2.422,1.147A9.19,9.19,0,0,0,35.4,50.2a9.069,9.069,0,0,0-.892,4.079,7.787,7.787,0,0,0,1.02,3.824,6.255,6.255,0,0,0,2.931,2.8,6.847,6.847,0,0,0,4.461.765,6.459,6.459,0,0,0,4.206-1.912,7.285,7.285,0,0,0,.637-9.687,5.014,5.014,0,0,0-2.55-1.912,5.69,5.69,0,0,0-2.932,0A5.128,5.128,0,0,0,39.73,49.3a6.223,6.223,0,0,0-.892,1.019l-.255-.127a4.033,4.033,0,0,1,1.912-2.932,8.416,8.416,0,0,1,3.7-1.147,6.444,6.444,0,0,1,4.462,1.4,10.648,10.648,0,0,1,2.8,3.824,11.293,11.293,0,0,1,.765,4.971,9.967,9.967,0,0,1-1.657,4.716,11.24,11.24,0,0,1-4.588,3.824,9.5,9.5,0,0,1-8.285-.383A9.924,9.924,0,0,1,32.083,58.1a11.437,11.437,0,0,1,.382-7.138,10.276,10.276,0,0,1,4.716-5.354,6.937,6.937,0,0,1,3.441-.892,8.765,8.765,0,0,1,2.551.511Zm7.647-7.648,1.147,4.333A15.113,15.113,0,0,0,53.5,45.99c.042-.085.084-.17.127-.255l.892-7.265h.255a30.585,30.585,0,0,1,1.53,6.246c.127,2.039-.382,3.441-1.53,4.333a1.791,1.791,0,0,1-1.784.255,2.5,2.5,0,0,1-1.657-1.147,10.849,10.849,0,0,1-1.147-3.952A29.472,29.472,0,0,1,50.82,37.577ZM41.388,55.295a1.663,1.663,0,0,0,1.508.445c.295-.393.888-1.558.022-1.846a.955.955,0,0,0-1.147,0A1.36,1.36,0,0,0,41.388,55.295ZM55.409,67.658l.765,3.059q.7,3.186,1.4,6.373l-.255.127q-1.021-1.4-2.04-2.8l-1.4-3.7a49.627,49.627,0,0,1-1.784,6.246l-.255.382-.255.383a3.916,3.916,0,0,1-2.294-1.275h.127l-.255-9.814,1.4,3.7a18.879,18.879,0,0,1,1.019-3.186c.383-1.019.892-1.53,1.657-1.53a1.637,1.637,0,0,1,1.275.51,4.41,4.41,0,0,1,.892,1.529Zm10.452-5.1-1.275,1.912-1.4,2.8a9,9,0,0,0-.51,2.166,4.553,4.553,0,0,0,.127,2.04,2.033,2.033,0,0,0,1.147.892l2.166.51,2.04.382c.042.085.084.17.127.255l-2.8,1.019a5.7,5.7,0,0,1-2.931,0,4.851,4.851,0,0,1-2.422-1.784,4.267,4.267,0,0,1-.51-4.079A10.519,10.519,0,0,1,64.2,62.686,1.694,1.694,0,0,1,65.1,62.3a5.188,5.188,0,0,1,.765.255Zm8.284-1.912a6.848,6.848,0,0,0-2.04,3.7c-.042.17-.084.34-.127.51l.255.51.127-.128a11.765,11.765,0,0,0,1.657-2.422,9.712,9.712,0,0,0,.765-2.549c-.1.1-.473.243-.637.383Zm2.294,1.274a12.829,12.829,0,0,1-2.167,3.186l-.892.765a1.366,1.366,0,0,1-1.275.383L71.851,66l-.127,1.53a4.9,4.9,0,0,0,.765,3.059.963.963,0,0,0,.892.51,3.953,3.953,0,0,0,2.294-.383l4.079-2.549L82.3,66.384l.255.127a39.9,39.9,0,0,1-5.1,5.608l-1.784,1.019a6.136,6.136,0,0,1-3.186.51,3.942,3.942,0,0,1-2.549-1.657A7.6,7.6,0,0,1,68.92,69.57a11.2,11.2,0,0,1-.255-4.079,10.2,10.2,0,0,1,1.275-3.952,8.529,8.529,0,0,1,2.166-2.549,5.484,5.484,0,0,1,2.932-1.275,3.782,3.782,0,0,1,1.275.255,2.609,2.609,0,0,1,.637,1.147,4.58,4.58,0,0,1-.511,2.805ZM27.495,73.649,26.22,84.1a21.691,21.691,0,0,1-1.147-3.7,32.3,32.3,0,0,1-.127-8.539,3.113,3.113,0,0,1,2.039-2.8,2.615,2.615,0,0,1,3.059,1.147,5.7,5.7,0,0,1,1.912,4.972,9.526,9.526,0,0,1-1.784,4.333l.255.255,4.843,3.57-.127.255-3.569-1.147a8.627,8.627,0,0,1-3.186-1.784,1.384,1.384,0,0,1-.51-.637,2.6,2.6,0,0,1,0-1.4l.765-1.53c.637-1.912.382-3.441-.892-4.589l-.255,1.148Zm15.932-3.824-.382-.765a27.449,27.449,0,0,0-3.059,8.795,3.543,3.543,0,0,0,2.167-2.294l.255-1.784V72.12l.51-.637.637-.255c.382.127.765.255.892.637l2.294,5.1-.127.127L44.7,74.924v.382A6.787,6.787,0,0,1,43.172,79a8.834,8.834,0,0,1-3.187,2.55,5.926,5.926,0,0,1-3.441-.127q-.765-.956,0-3.059A42.163,42.163,0,0,1,39.6,71.992a19.623,19.623,0,0,1,2.422-3.57,1.159,1.159,0,0,1,1.275-.509.9.9,0,0,1,.51.636l-.127.637-.255.638ZM74.528,33.5a1.894,1.894,0,0,0,1.019,1.784,1.518,1.518,0,0,0,1.657-.127,1.73,1.73,0,0,0,.127-2.8c-.758-.758-3.077.055-2.8,1.147ZM70.7,32.224c1.657.765,2.422,1.657,2.549,2.549a3.741,3.741,0,0,1-1.4,2.422l-2.8,2.039-1.019.892,5.607,4.588c-.042.128-.084.255-.127.382l-5.225-2.422a5.986,5.986,0,0,1-2.677-1.912,1.31,1.31,0,0,1,.128-1.529l3.441-3.569.382-.382-.764-.127L66.5,35.028l-3.314.637-1.147.382-.255.255q-.128,1.976-.255,3.951a129.151,129.151,0,0,1-2.423,17.334q-.445.829-.891,1.657V40.126l-.128-4.206a3.8,3.8,0,0,1,.637-1.912,3.259,3.259,0,0,1,1.657-1.275A9.574,9.574,0,0,1,64.2,31.586l4.333.128a10.817,10.817,0,0,1,2.166.511ZM45.212,30.185a3.685,3.685,0,0,0,.127,2.677.9.9,0,0,0,.51.637,2.419,2.419,0,0,0,1.784-.382,11.5,11.5,0,0,0,2.422-1.784h.128c-.765,2.166-2.04,3.314-3.952,3.569-1.147.127-1.912-.382-2.549-1.657a5.961,5.961,0,0,1-.127-4.461A4.706,4.706,0,0,1,47,25.342a1.3,1.3,0,0,1,1.274.255q.765.574.383,1.912a4.768,4.768,0,0,1-1.53,2.549,2.028,2.028,0,0,1-1.275.637.662.662,0,0,1-.51-.255q-.063-.128-.127-.255Zm2.167-3.314c-.147-.093-.413-.02-.637.255a6.068,6.068,0,0,0-1.275,2.422v.127l.127.51.127-.128A3.45,3.45,0,0,0,47,28.655a4.074,4.074,0,0,0,.382-1.784Zm-9.432-4.716a9.806,9.806,0,0,1,1.275,3.059,30.822,30.822,0,0,1,.51,5.99v2.932l.127,1.147.127.382h.128L43.3,34.519l.127.255L41.77,36.3a3.866,3.866,0,0,1-2.039,1.019l-.637-.127a4.546,4.546,0,0,1-1.275-1.912l-.382-2.422.127-4.971.255-4.206.127-1.529ZM18.445,54.4c-.051.052-.355.326-.409.377a1.967,1.967,0,0,0-.483,1.025l.127.127a1.17,1.17,0,0,0,.765-.509,1.409,1.409,0,0,0,0-1.021Zm-.892,1.784c-.128.637,0,.892.382,1.019l.765-.255.892-.509.127.127-.382.509q-.764.956-1.529.765a1.369,1.369,0,0,1-1.02-1.147,3.1,3.1,0,0,1,0-1.53,1.954,1.954,0,0,1,.892-1.275c.637-.383,1.02-.383,1.4,0a1.433,1.433,0,0,1,0,1.4,1.276,1.276,0,0,1-1.4.908c-.042,0-.084-.015-.127-.015Zm-3.823-.764q-.574.191-.765,1.147L12.71,58.1v.255l.127.127h.128a1.547,1.547,0,0,0,.637-.765,7.1,7.1,0,0,0,.637-1.912v-.255Zm.637-2.933c0-.382.128-.51.382-.51a.338.338,0,0,1,.382.382,14.163,14.163,0,0,1,.255,2.166L15.259,55.8l.127.765q.192.764.382,1.53h-.127l-.51-1.275-.255.637a6.954,6.954,0,0,1-1.02,1.4.983.983,0,0,1-1.53.255,1.36,1.36,0,0,1-.382-.637,3.6,3.6,0,0,1,.51-2.167q.573-1.529,1.53-1.147l.255.127.128-.765V52.49Zm14.53-11.6,5.481-1.529.127.255a22.443,22.443,0,0,1-4.588,3.569,16.322,16.322,0,0,1-2.8,1.147l1.147,7.648.382,5.481a32.963,32.963,0,0,1-.382,5.353l-1.02,2.8-.255-.127-1.275-5.863L24.564,48.666a29.07,29.07,0,0,1,.255-3.951l-.51.127-9.559-.51,8.922-2.549ZM24.308,59.246a17.928,17.928,0,0,0-4.461,2.8,8.345,8.345,0,0,0-2.677,5.48q-.063.574-.128,1.147l3.187-.383,3.441-.127v.51l-3.314,2.166a14.92,14.92,0,0,1-3.441,1.785l.127,1.019a66.233,66.233,0,0,0,1.657,9.3l1.147,4.462-.255.127a28.324,28.324,0,0,1-4.971-9.305,25.768,25.768,0,0,1-1.147-4.206l-.128-.637-4.843.12v-.159L10.8,71.864l2.549-1.658a10.736,10.736,0,0,1,.51-3.441,10.23,10.23,0,0,1,4.716-6.5,7.4,7.4,0,0,1,5.736-1.019Z" transform="translate(-4.758 -12.396)" fill-rule="evenodd"/>
  </g>
</svg>
