<svg xmlns="http://www.w3.org/2000/svg" xmlns:xlink="http://www.w3.org/1999/xlink" width="43.116" height="71.738" viewBox="0 0 43.116 71.738">
  <defs>
    <radialGradient id="radial-gradient" cx="1377" cy="7574.161" r="1.013" gradientTransform="translate(-984.184 -5146.109) scale(1.669 1.669)" gradientUnits="userSpaceOnUse">
      <stop offset="0"/>
      <stop offset="1" stop-opacity="0"/>
    </radialGradient>
  </defs>
  <g id="netflix-1" transform="translate(0.145 0.145)">
    <g id="g4182" transform="translate(0 0)">
      <g id="g5747" transform="translate(0)">
        <path id="path4155" d="M-21.964-119.872l-.025,15.792-.025,15.792-1.149-3.666v-.009l-1.491,35.156c1.466,4.662,2.249,7.153,2.257,7.163s.841.066,1.849.122c3.049.169,6.83.536,9.7.94a5.845,5.845,0,0,0,1.274.1c.042-.038.05-16.111.042-35.729l-.025-35.663Z" transform="translate(52.354 119.922)" fill="#b1060f" stroke="#000" stroke-width="0.291"/>
        <path id="path4157" d="M-93.618-120.037v35.7c0,19.635.017,35.716.042,35.744s1.1-.094,2.4-.254,3.09-.367,3.982-.451c1.366-.132,5.464-.423,5.931-.432.142,0,.15-.8.167-15.123l.025-15.123.991,3.158c.15.489.2.639.35,1.118l1.491-35.143c-.317-1.006-.15-.479-.508-1.626-1.216-3.882-2.249-7.162-2.291-7.312l-.083-.263H-93.618Z" transform="translate(93.618 120.047)" fill="#b1060f" stroke="#000" stroke-width="0.291"/>
        <path id="path5715" d="M-21.964-119.872l-.025,15.792-.025,15.792-1.149-3.666v-.009l-1.491,35.156c1.466,4.662,2.249,7.153,2.257,7.163s.841.066,1.849.122c3.049.169,6.83.536,9.7.94a5.845,5.845,0,0,0,1.274.1c.042-.038.05-16.111.042-35.729l-.025-35.663Z" transform="translate(52.354 119.922)" fill="#b1060f" stroke="#000" stroke-width="0.291"/>
        <path id="path5717" d="M-93.618-120.037v35.7c0,19.635.017,35.716.042,35.744s1.1-.094,2.4-.254,3.09-.367,3.982-.451c1.366-.132,5.464-.423,5.931-.432.142,0,.15-.8.167-15.123l.025-15.123.991,3.158c.15.489.2.639.35,1.118l1.491-35.143c-.317-1.006-.15-.479-.508-1.626-1.216-3.882-2.249-7.162-2.291-7.312l-.083-.263H-93.618Z" transform="translate(93.618 120.047)" fill="#b1060f" stroke="#000" stroke-width="0.291"/>
        <path id="path5719" d="M-93.618-120.037V-100l15.36,37.446c0-.855,0-1.325.01-2.3l.031-15.123L-77-76.82c6.749,17.595,10.38,27.032,10.4,27.05s1.033.066,2.27.122c3.743.169,8.386.536,11.914.94a8.782,8.782,0,0,0,1.565.1c.031-.028.051-7.9.051-19.024l-15.278-40.4-.01,3.825-.031,15.79-1.411-3.666c-1.381-3.581-2.3-5.978-7.854-20.4-1.493-3.882-2.761-7.162-2.812-7.312l-.1-.263H-93.618Z" transform="translate(93.618 120.047)" fill="url(#radial-gradient)"/>
        <path id="path5721" d="M-93.618-120.037-78.224-79.95v-.019l1.217,3.158c6.761,17.586,10.393,27.022,10.413,27.041s1.033.066,2.271.122c3.744.169,8.388.536,11.917.94a8.691,8.691,0,0,0,1.555.1L-66.112-88.419v.009l-1.412-3.666c-1.381-3.581-2.3-5.978-7.856-20.4-1.493-3.882-2.762-7.162-2.813-7.312l-.1-.263h-7.662Z" transform="translate(93.618 120.047)" fill="#e50914"/>
      </g>
    </g>
  </g>
</svg>
