<svg xmlns="http://www.w3.org/2000/svg" xmlns:xlink="http://www.w3.org/1999/xlink" width="877.903" height="1084.958" viewBox="0 0 877.903 1084.958">
  <defs>
    <linearGradient id="linear-gradient" x1="0.5" x2="0.5" y2="1" gradientUnits="objectBoundingBox">
      <stop offset="0" stop-color="#393e41" stop-opacity="0"/>
      <stop offset="1" stop-opacity="0.302"/>
    </linearGradient>
    <linearGradient id="linear-gradient-5" x2="1" y2="1" gradientUnits="objectBoundingBox">
      <stop offset="0" stop-opacity="0.4"/>
      <stop offset="1" stop-opacity="0"/>
    </linearGradient>
    <linearGradient id="linear-gradient-6" x1="0.786" y1="-0.534" x2="0.234" y2="1" gradientUnits="objectBoundingBox">
      <stop offset="0" stop-color="#ffc62c" stop-opacity="0"/>
      <stop offset="1" stop-color="#ff6663" stop-opacity="0.702"/>
    </linearGradient>
    <linearGradient id="linear-gradient-8" x1="0.5" x2="0.5" y2="1" gradientUnits="objectBoundingBox">
      <stop offset="0" stop-color="#ffc62c" stop-opacity="0"/>
      <stop offset="1" stop-color="#ff6663" stop-opacity="0.302"/>
    </linearGradient>
    <linearGradient id="linear-gradient-9" x1="1" x2="0.5" y2="1" gradientUnits="objectBoundingBox">
      <stop offset="0" stop-opacity="0.4"/>
      <stop offset="1" stop-color="#ffc62c" stop-opacity="0"/>
    </linearGradient>
  </defs>
  <g id="Groupe_103" data-name="Groupe 103" transform="translate(-1104.917 88.449)">
    <path id="Tracé_5468" data-name="Tracé 5468" d="M8204.747-33.449s-1.051,45.063-23.438,113.842c-15.7,48.232-33.363,102.246-107.146,187.505-178.217,205.938-596.031,491.5-596.031,491.5s-86.88,208.083,30.033,248.842,254.205-85.808,437.619-85.808,296.037,85.808,296.037,85.808Z" transform="translate(-6259 -55)" fill="#fff"/>
    <g id="Hand_and_iPad" data-name="Hand and iPad" transform="matrix(0.914, -0.407, 0.407, 0.914, 1104.917, 438.701)">
      <g id="Primary" transform="translate(-418 -6152)">
        <g id="Hand-and-iPad" transform="translate(418 6152)">
          <g id="iPad">
            <g id="Groupe_82" data-name="Groupe 82">
              <path id="Tracé_5456" data-name="Tracé 5456" d="M686,26V467a25.9,25.9,0,0,1-26,26H26A25.9,25.9,0,0,1,0,467V26A25.9,25.9,0,0,1,26,0H660A25.9,25.9,0,0,1,686,26Z" fill="#393e41"/>
              <path id="Tracé_5457" data-name="Tracé 5457" d="M686,26V467a25.9,25.9,0,0,1-26,26H26A25.9,25.9,0,0,1,0,467V26A25.9,25.9,0,0,1,26,0H660A25.9,25.9,0,0,1,686,26Z" fill="url(#linear-gradient)"/>
            </g>
            <g id="Button" transform="translate(11 234)">
              <ellipse id="Ellipse_64" data-name="Ellipse 64" cx="11.622" cy="11.608" rx="11.622" ry="11.608" transform="translate(0.268 0.392)" fill="#ecdff7"/>
              <g id="Groupe_83" data-name="Groupe 83">
                <ellipse id="Ellipse_65" data-name="Ellipse 65" cx="10.331" cy="10.318" rx="10.331" ry="10.318" transform="translate(1.559 1.682)" fill="#393e41"/>
                <ellipse id="Ellipse_66" data-name="Ellipse 66" cx="10.331" cy="10.318" rx="10.331" ry="10.318" transform="translate(1.559 1.682)" fill="url(#linear-gradient)"/>
              </g>
            </g>
            <path id="Bg" d="M639,25V468a1.23,1.23,0,0,1-1,1H47a1.231,1.231,0,0,1-1-1V25a1.231,1.231,0,0,1,1-1H638A1.23,1.23,0,0,1,639,25Z" fill="#757dc0"/>
            <path id="Flowers" d="M395.885,145.1c-2.255,23.738.612,49.445,7.989,79.116q2.455-22.431,17.075-32.667c16.63-11.645,35.749-13.034,42.7-3.1s-.89,27.423-17.52,39.067q-15.9,11.134-40.432,3.814c4.355,16.433,9.667,32.921,18.795,59.445l1.019,2.962q2.277-23.053,17.159-33.474c16.63-11.645,35.749-13.034,42.7-3.1s-.889,27.423-17.52,39.067q-15.809,11.07-40.149,3.9c11.307,32.986,15.7,46.739,19.459,62.312q3.243-19.357,16.522-28.655c16.63-11.645,35.75-13.033,42.7-3.1s-.89,27.423-17.52,39.068q-15.471,10.833-39.113,4.2c5.3,25.667,5.786,46.947.691,65.679a1.5,1.5,0,1,1-2.9-.787c5.058-18.6,4.459-39.92-1.069-65.882l-.318-.1q.02-.586.045-1.165-.167-.762-.338-1.53c-4.545-20.334-8.679-33.253-24.217-78.4-10.337-30.039-15.8-47.256-20.519-66.1-7.658-30.577-10.609-57.051-8.171-81.558q.92-27.337,17.517-38.959c16.63-11.645,35.749-13.033,42.7-3.1s-.89,27.423-17.521,39.068Q419.98,152.085,395.885,145.1Z" fill="#a7a7ee"/>
            <path id="Flowers-2" data-name="Flowers" d="M427.55,308.154c-19.294-30.218-80.11,50.274-100.912-16.267s-4.961-98.367-31.72-114.061-21.739,104.649-49.445,77.5-3.514-116.412-31.135-127.864-14.775,49.337-35.619,57.393-16.75-70.984-36.816-89.029-50.224,10.689-27.674,82S63,177.762,47.9,210.767s104.452,47.548,94,81.12S-10.924,266.235,18.489,333.036s160.23-10.266,160.23,41.425-64.49,11.455-64.49,66.613c0,27.9,130.783,68.3,212.409,31.274C406.359,436.187,437.083,323.085,427.55,308.154Z" fill="#464d89" fill-rule="evenodd"/>
            <path id="Flowers-3" data-name="Flowers" d="M380.6,455.365c7.617-23.6-26.547-62.249-13.836-82.155s52.774,33.118,66.477-10.716,3.269-64.8,20.9-75.14,14.321,68.939,32.573,51.056,2.315-76.689,20.511-84.233,9.733,32.5,23.464,37.808,11.035-46.761,24.253-58.648,33.086,7.041,18.231,54.017,33.748-.042,43.694,21.7-68.809,31.323-61.925,53.44,100.677-16.9,81.3,27.107-105.554-6.763-105.554,27.29,42.484,7.545,42.484,43.881S372.98,478.967,380.6,455.365Z" fill="#464d89" fill-rule="evenodd"/>
            <path id="Flowers-4" data-name="Flowers" d="M146.547,351.054c6.676-47.909,58.928,28.863,81.843,82.242C247.871,331.943,321.724,131.29,330.3,236.782,342.231,383.588,295.4,428.6,237.708,482.33,228.344,491.051,136.409,423.81,146.547,351.054Z" fill="#a7a7ee" fill-rule="evenodd"/>
            <g id="Menu">
              <g id="Groupe_84" data-name="Groupe 84" transform="translate(46 153)">
                <g id="Detail">
                  <path id="Tracé_5458" data-name="Tracé 5458" d="M0,0H29A10,10,0,0,1,39,10V176a10,10,0,0,1-10,10H0Z" fill="#393e41"/>
                  <path id="Tracé_5459" data-name="Tracé 5459" d="M0,0H29A10,10,0,0,1,39,10V176a10,10,0,0,1-10,10H0Z" fill="url(#linear-gradient)"/>
                </g>
                <path id="Button-2" data-name="Button" d="M12.5,25h14a7.5,7.5,0,0,1,0,15h-14a7.5,7.5,0,0,1,0-15Z" fill="#4e565c" fill-rule="evenodd"/>
                <path id="Button-3" data-name="Button" d="M12.5,105h14a7.5,7.5,0,0,1,0,15h-14a7.5,7.5,0,0,1,0-15Z" fill="#4e565c" fill-rule="evenodd"/>
              </g>
            </g>
            <g id="Menu-2" data-name="Menu">
              <g id="Groupe_85" data-name="Groupe 85" transform="translate(46 24)">
                <g id="Detail-2" data-name="Detail">
                  <path id="Tracé_5460" data-name="Tracé 5460" d="M0,0H593V39H0Z" fill="#393e41"/>
                  <path id="Tracé_5461" data-name="Tracé 5461" d="M0,0H593V39H0Z" fill="url(#linear-gradient)"/>
                </g>
                <circle id="Button-4" data-name="Button" cx="10.5" cy="10.5" r="10.5" transform="translate(552 9)" fill="#4e565c"/>
                <circle id="Button-5" data-name="Button" cx="10.5" cy="10.5" r="10.5" transform="translate(511 9)" fill="#4e565c"/>
                <circle id="Button-6" data-name="Button" cx="10.5" cy="10.5" r="10.5" transform="translate(470 9)" fill="#4e565c"/>
                <circle id="Button-7" data-name="Button" cx="10.5" cy="10.5" r="10.5" transform="translate(429 9)" fill="#4e565c"/>
                <path id="Button-8" data-name="Button" d="M27.5,12h144a7.5,7.5,0,0,1,0,15H27.5a7.5,7.5,0,0,1,0-15Z" fill="#4e565c" fill-rule="evenodd"/>
              </g>
            </g>
          </g>
          <g id="Hand" transform="translate(249 252)">
            <path id="Sh" d="M308.458,216.923c-1.421-43.5-6.731-90.274-9.639-97.937-4.57-12.038-9.266-14.481-10.943-14.481s2.785-12.974-7.691-22.046-63.2-31.571-71.03-38.862S170.971.8,160.507.8,50.165,29.747,50.165,36.672s2,19.532,32.528,22.7,47.442-13.114,59.859-8.851,39.6,54.351,17.956,90.072S74.083,112.263,74.083,99.38,65.625,61.246,54.42,54.78s-26.71-4.812-26.71-.549c0,15.712.893,58.751,4.172,64.755s26.813,45.926,36.066,64.233c3.345,6.618,8.938,19.742,16.536,33.7Z" fill-rule="evenodd" fill="url(#linear-gradient-5)"/>
            <g id="Finger">
              <path id="Tracé_5462" data-name="Tracé 5462" d="M142.638,87.2c-19.1,11.127-50.663,35.865-55.248,68.356s16.265,40.168,27.624,22.113,43.03-54.391,59.223-58.4S161.743,76.074,142.638,87.2Z" fill="#ffc62c"/>
              <path id="Tracé_5463" data-name="Tracé 5463" d="M142.638,87.2c-19.1,11.127-50.663,35.865-55.248,68.356s16.265,40.168,27.624,22.113,43.03-54.391,59.223-58.4S161.743,76.074,142.638,87.2Z" fill="url(#linear-gradient-6)"/>
            </g>
            <g id="Finger-2" data-name="Finger">
              <path id="Tracé_5464" data-name="Tracé 5464" d="M119.412,52.338C100.308,63.465,68.6,89.754,59.47,121.889s20.959,38.973,32.318,20.918,43.03-54.391,59.223-58.4S138.517,41.211,119.412,52.338Z" fill="#ffc62c"/>
              <path id="Tracé_5465" data-name="Tracé 5465" d="M119.412,52.338C100.308,63.465,68.6,89.754,59.47,121.889s20.959,38.973,32.318,20.918,43.03-54.391,59.223-58.4S138.517,41.211,119.412,52.338Z" fill="url(#linear-gradient-6)"/>
            </g>
            <g id="Groupe_86" data-name="Groupe 86">
              <path id="Tracé_5466" data-name="Tracé 5466" d="M.173,54.631c0,15.669-.28,58.042,3,64.03s26.813,45.8,36.066,64.056,43.24,81.059,55.119,96.947S140.67,327,145.8,348.79s7.638,17.787,7.638,76.619,169.64,58.832,148.841,0S281.4,364.637,277.21,348.79s-7.964-27.709,0-69.126-2.532-149-7.1-161-9.265-14.441-10.943-14.441,2.785-12.939-7.691-21.986-63.2-31.485-71.03-38.755S142.261.8,131.8.8,21.455,29.667,21.455,36.573s2,19.478,32.528,22.634,47.442-13.078,59.858-8.827,39.6,54.2,17.957,89.825-86.424-28.248-86.424-41.1S36.916,61.08,25.71,54.631.173,50.38.173,54.631Z" fill="#ffc62c"/>
              <path id="Tracé_5467" data-name="Tracé 5467" d="M.173,54.631c0,15.669-.28,58.042,3,64.03s26.813,45.8,36.066,64.056,43.24,81.059,55.119,96.947S140.67,327,145.8,348.79s7.638,17.787,7.638,76.619,169.64,58.832,148.841,0S281.4,364.637,277.21,348.79s-7.964-27.709,0-69.126-2.532-149-7.1-161-9.265-14.441-10.943-14.441,2.785-12.939-7.691-21.986-63.2-31.485-71.03-38.755S142.261.8,131.8.8,21.455,29.667,21.455,36.573s2,19.478,32.528,22.634,47.442-13.078,59.858-8.827,39.6,54.2,17.957,89.825-86.424-28.248-86.424-41.1S36.916,61.08,25.71,54.631.173,50.38.173,54.631Z" fill="url(#linear-gradient-8)"/>
            </g>
            <g id="Group-14">
              <g id="Groupe_87" data-name="Groupe 87" transform="translate(84.44 33.017)">
                <path id="Line" d="M87.008.762A1,1,0,1,1,88.463-.61c.719.762,6.48,6.824,8.338,8.8,3.551,3.782,6.571,7.09,9.459,10.393,9.7,11.1,16.891,21.026,21.527,30.478,4.4,8.965,6.281,17.165,5.283,24.563a1,1,0,0,1-1.982-.267c.938-6.952-.859-14.775-5.1-23.414-4.545-9.266-11.638-19.063-21.237-30.043-2.871-3.283-5.876-6.575-9.412-10.341C93.49,7.589,87.731,1.529,87.008.762Z" fill="#fff"/>
                <path id="Line-2" data-name="Line" d="M173.592,57.7a1,1,0,1,1,1.959-.4c1.388,6.8,1.263,14.956.013,24.993a1,1,0,0,1-1.985-.247C174.8,72.2,174.927,64.236,173.592,57.7Z" fill="#fff"/>
                <path id="Sh-2" data-name="Sh" d="M30,85.441l63.267,46a15.491,15.491,0,0,1-18.2,25.071L6.559,106.7C-8.924,95.446,9.689,70.674,30,85.441Z" fill="url(#linear-gradient-9)"/>
              </g>
            </g>
            <path id="Detail-3" data-name="Detail" d="M44.549,90.949l-62.584-45.5a12.909,12.909,0,0,1-3.334-3.566L-37.1,16.877a3.875,3.875,0,0,1,1.213-5.342,3.869,3.869,0,0,1,3.012-.477l28.627,7.248A12.9,12.9,0,0,1,.167,20.377L21.65,36a1.1,1.1,0,0,0-.2.576c0,6.87,1.981,19.347,32.052,22.584l124.2,90.3a15.491,15.491,0,0,1-18.2,25.071L44.549,90.949c-2.384-13.328-9.7-31.056-18.839-36.318C14.5,48.182.173,50.38.173,54.631c0,1.2,0,2.563,0,4.052Z" fill="#f2f5f9"/>
            <path id="Detail-4" data-name="Detail" d="M115.926,142.8q.966-5.723,7.014-14.053t11.189-11.017l7.307,5.312q-5.141,2.688-11.189,11.018t-7.013,14.053Z" fill="#d6dfea" fill-rule="evenodd"/>
            <path id="Detail-5" data-name="Detail" d="M177.6,177.341a8.747,8.747,0,1,1,8.742-8.747A8.744,8.744,0,0,1,177.6,177.341Zm0-2a6.747,6.747,0,1,0-6.742-6.747A6.744,6.744,0,0,0,177.6,175.341Z" fill="#d6dfea"/>
          </g>
        </g>
      </g>
    </g>
  </g>
</svg>
