<svg xmlns="http://www.w3.org/2000/svg" xmlns:xlink="http://www.w3.org/1999/xlink" width="461.983" height="427" viewBox="0 0 461.983 427">
  <defs>
    <clipPath id="clip-path">
      <rect id="Rectangle_119" data-name="Rectangle 119" width="129.716" height="79.763"/>
    </clipPath>
  </defs>
  <g id="schema" transform="translate(-1354 -275)">
    <g id="Tracé_5455" data-name="Tracé 5455" transform="translate(1376 288)" fill="none" stroke-dasharray="10">
      <path d="M68.829,26.727,362.291,223.318,27.517,370.049Z" stroke="none"/>
      <path d="M 85.44525146484375 37.85812377929688 C 85.44525146484375 37.85812377929688 86.91683959960938 38.84396362304688 88.62118530273438 39.9857177734375 L 88.6224365234375 39.98654174804688 C 88.62539672851563 39.988525390625 88.62860107421875 39.99066162109375 88.63156127929688 39.99264526367188 L 88.63787841796875 39.99688720703125 C 88.63864135742188 39.99737548828125 88.6397705078125 39.99813842773438 88.6405029296875 39.99862670898438 L 88.66207885742188 40.01309204101563 C 88.6630859375 40.01376342773438 88.66387939453125 40.0142822265625 88.66485595703125 40.01495361328125 L 93.75332641601563 43.42373657226563 L 93.19674682617188 44.25454711914063 L 84.88870239257813 38.68896484375 L 85.44525146484375 37.85812377929688 Z M 102.0613708496094 48.98934936523438 C 102.0613708496094 48.98934936523438 105.8872985839844 51.55233764648438 108.3465576171875 53.19979858398438 L 108.3484497070313 53.20108032226563 C 108.3511047363281 53.20285034179688 108.3538818359375 53.2047119140625 108.3565368652344 53.20648193359375 L 108.3651123046875 53.21221923828125 C 108.3695068359375 53.21517944335938 108.3735046386719 53.21786499023438 108.3778991699219 53.22079467773438 L 108.3807067871094 53.22265625 C 108.3844299316406 53.22518920898438 108.3881225585938 53.2276611328125 108.391845703125 53.23013305664063 L 110.3694763183594 54.55496215820313 L 109.8128967285156 55.38577270507813 L 101.5048522949219 49.82012939453125 L 102.0613708496094 48.98934936523438 Z M 118.6775207519531 60.12054443359375 L 124.2306518554688 63.84060668945313 C 124.2335205078125 63.84255981445313 124.2365112304688 63.84454345703125 124.2393798828125 63.84646606445313 L 124.2469787597656 63.85153198242188 C 124.2522583007813 63.85507202148438 124.2575073242188 63.85861206054688 124.2627563476563 63.86212158203125 L 124.2809143066406 63.87429809570313 C 124.2864074707031 63.87796020507813 124.2923278808594 63.88192749023438 124.2978210449219 63.8856201171875 L 124.3022155761719 63.8885498046875 C 124.3045959472656 63.89016723632813 124.3076782226563 63.8922119140625 124.31005859375 63.89382934570313 L 124.3120727539063 63.89517211914063 C 124.315185546875 63.89724731445313 124.3180847167969 63.89920043945313 124.3211669921875 63.90127563476563 L 124.3246765136719 63.90362548828125 C 124.334228515625 63.91000366210938 124.3440246582031 63.91656494140625 124.353515625 63.92294311523438 L 124.3675231933594 63.93231201171875 C 125.8229370117188 64.90731811523438 126.985595703125 65.68618774414063 126.985595703125 65.68618774414063 L 126.4290161132813 66.5169677734375 L 118.1209716796875 60.95135498046875 L 118.6775207519531 60.12054443359375 Z M 135.2936553955078 71.25177001953125 C 135.2936553955078 71.25177001953125 135.5630187988281 71.43222045898438 136.0047149658203 71.72811889648438 L 136.0059967041016 71.72897338867188 C 136.0139465332031 71.73428344726563 136.0221405029297 71.73977661132813 136.0301818847656 71.74517822265625 L 136.0320281982422 71.74639892578125 C 136.0330963134766 71.74713134765625 136.0337982177734 71.74758911132813 136.0348663330078 71.74832153320313 L 136.0403900146484 71.75201416015625 C 136.0425262451172 71.75344848632813 136.0450134277344 71.75509643554688 136.0471649169922 71.75656127929688 L 143.6017303466797 76.8173828125 L 143.0451507568359 77.648193359375 L 134.7371063232422 72.08258056640625 L 135.2936553955078 71.25177001953125 Z M 151.9097900390625 82.38299560546875 C 151.9097900390625 82.38299560546875 153.78662109375 83.64028930664063 155.7564086914063 84.9598388671875 L 155.7633209228516 84.9644775390625 C 155.7648315429688 84.96548461914063 155.7668609619141 84.96685791015625 155.7683715820313 84.96786499023438 L 155.7778625488281 84.97421264648438 C 155.7814025878906 84.97659301757813 155.7852478027344 84.97915649414063 155.7887878417969 84.98153686523438 L 155.7978668212891 84.98760986328125 C 155.8019256591797 84.99032592773438 155.8058319091797 84.99295043945313 155.8098754882813 84.99566650390625 L 160.2178802490234 87.9486083984375 L 159.6612854003906 88.7794189453125 L 151.3532409667969 83.21380615234375 L 151.9097900390625 82.38299560546875 Z M 168.5259246826172 93.51422119140625 C 168.5259246826172 93.51422119140625 173.1483917236328 96.61080932617188 175.4974365234375 98.1844482421875 L 175.5035247802734 98.18850708007813 C 175.5037231445313 98.18865966796875 175.5039367675781 98.18878173828125 175.5041351318359 98.18893432617188 L 175.5095672607422 98.19256591796875 C 175.5114898681641 98.19384765625 175.5132598876953 98.19503784179688 175.5151672363281 98.19631958007813 L 175.5205993652344 98.199951171875 C 175.5232696533203 98.20175170898438 175.5255279541016 98.2032470703125 175.5281982421875 98.20504760742188 L 175.5391235351563 98.21237182617188 C 175.5429229736328 98.21490478515625 175.546875 98.21755981445313 175.5506591796875 98.2200927734375 L 176.8340148925781 99.079833984375 L 176.2774353027344 99.91064453125 L 167.9693756103516 94.34500122070313 L 168.5259246826172 93.51422119140625 Z M 185.1420593261719 104.6454162597656 L 189.0863800048828 107.2877197265625 C 189.0896759033203 107.2899475097656 189.0931549072266 107.2922668457031 189.0964508056641 107.2944641113281 L 189.1064910888672 107.3012084960938 C 189.1123046875 107.3050842285156 189.1183319091797 107.3091430664063 189.1241607666016 107.3130493164063 L 189.1787109375 107.3495788574219 C 189.1842956542969 107.3533020019531 189.1898193359375 107.3570251464844 189.1953887939453 107.3607482910156 L 189.202880859375 107.3657836914063 C 189.2107391357422 107.3710327148438 189.21826171875 107.3760681152344 189.2261199951172 107.38134765625 L 189.2470397949219 107.3953552246094 C 189.2510833740234 107.3980712890625 189.2545928955078 107.4004211425781 189.2586517333984 107.4031372070313 L 189.2602386474609 107.4042053222656 C 191.3491058349609 108.8035278320313 193.4501495361328 110.2110595703125 193.4501495361328 110.2110595703125 L 192.8935699462891 111.0418090820313 L 184.5855255126953 105.4762268066406 L 185.1420593261719 104.6454162597656 Z M 201.7581939697266 115.7766418457031 C 201.7581939697266 115.7766418457031 202.4060974121094 116.2106628417969 203.3402557373047 116.8364562988281 L 203.3406372070313 116.8367004394531 C 203.345947265625 116.8402709960938 203.3509826660156 116.8436279296875 203.3563079833984 116.8471984863281 L 203.37255859375 116.8580932617188 C 203.3744049072266 116.8593444824219 203.3758087158203 116.8602600097656 203.3776702880859 116.8615112304688 L 203.3814697265625 116.8640747070313 C 203.3839416503906 116.86572265625 203.3869018554688 116.8677062988281 203.3893890380859 116.8693542480469 L 203.3904266357422 116.8700561523438 C 203.3922882080078 116.8713073730469 203.3939819335938 116.8724365234375 203.3958435058594 116.8736877441406 L 203.4032592773438 116.878662109375 C 203.404296875 116.8793640136719 203.4055786132813 116.8802185058594 203.4066162109375 116.8809204101563 L 203.4131164550781 116.88525390625 C 203.4143676757813 116.8861083984375 203.4156036376953 116.8869323730469 203.4168548583984 116.8877563476563 L 203.4204711914063 116.8901977539063 C 203.4231719970703 116.8919982910156 203.4261016845703 116.8939514160156 203.4288024902344 116.8957824707031 L 203.4342803955078 116.8994445800781 C 203.4342803955078 116.8994445800781 203.4344787597656 116.8995666503906 203.4344787597656 116.8995666503906 L 203.4537506103516 116.9124755859375 C 203.4541625976563 116.9127502441406 203.4544067382813 116.9129333496094 203.4548187255859 116.9132080078125 L 210.0662841796875 121.3422546386719 L 209.5097045898438 122.1730346679688 L 201.20166015625 116.6074523925781 L 201.7581939697266 115.7766418457031 Z M 218.3743438720703 126.9078674316406 C 218.3743438720703 126.9078674316406 220.7188873291016 128.4784851074219 222.9170989990234 129.9510498046875 L 222.9176788330078 129.9514465332031 C 222.9499969482422 129.9731140136719 222.9817199707031 129.9943542480469 223.0139617919922 130.0159606933594 L 223.014404296875 130.0162353515625 C 223.0302734375 130.0268859863281 223.0459899902344 130.0374145507813 223.0618438720703 130.0480346679688 L 223.0634765625 130.0491027832031 C 223.0702667236328 130.0536804199219 223.0770568847656 130.0582275390625 223.0838470458984 130.0627746582031 L 223.0896911621094 130.0666809082031 C 223.0921936035156 130.068359375 223.0946350097656 130.0700073242188 223.0971527099609 130.0716857910156 L 223.1009521484375 130.07421875 C 223.1024627685547 130.0752258300781 223.1042633056641 130.0764465332031 223.1057739257813 130.0774536132813 L 223.1274719238281 130.0919799804688 C 223.1282196044922 130.0924987792969 223.1287384033203 130.0928344726563 223.1295013427734 130.0933532714844 L 223.1382598876953 130.0992126464844 C 223.1407623291016 130.1008911132813 223.1430358886719 130.1024169921875 223.1455535888672 130.1040954589844 L 223.1642150878906 130.1166076660156 C 223.1652221679688 130.1172790527344 223.1665649414063 130.1181640625 223.1675720214844 130.1188354492188 L 226.6824188232422 132.4734497070313 L 226.1258392333984 133.3042602539063 L 217.8177947998047 127.7386779785156 L 218.3743438720703 126.9078674316406 Z M 234.990478515625 138.0390930175781 C 234.990478515625 138.0390930175781 240.9042510986328 142.000732421875 242.7530364990234 143.2392272949219 L 242.7538146972656 143.23974609375 C 242.7703857421875 143.2508544921875 242.7866363525391 143.2617492675781 242.8025512695313 143.2723999023438 L 242.8063507080078 143.2749481201172 C 242.8136444091797 143.2798309326172 242.8208770751953 143.2846832275391 242.8280334472656 143.2894744873047 L 242.8282012939453 143.2895812988281 C 242.8354797363281 143.2944488525391 242.8425445556641 143.2991943359375 242.8496704101563 143.3039703369141 L 242.8547210693359 143.3073577880859 C 242.8611907958984 143.3116912841797 242.8678894042969 143.3161773681641 242.8742370605469 143.3204345703125 L 242.8764495849609 143.3219146728516 C 242.8795623779297 143.3239898681641 242.8826141357422 143.3260345458984 242.8856964111328 143.3280944824219 L 242.8875122070313 143.3293151855469 C 242.888916015625 143.3302612304688 242.8904876708984 143.3313140869141 242.8919067382813 143.3322601318359 L 242.8929748535156 143.3329772949219 C 242.8939056396484 143.3336029052734 242.8946380615234 143.3340911865234 242.8955688476563 143.334716796875 L 242.9056396484375 143.3414611816406 C 242.9059906005859 143.3416900634766 242.9063720703125 143.3419494628906 242.9067077636719 143.3421783447266 L 242.9111938476563 143.3451843261719 C 242.9116516113281 143.3454895019531 242.9119873046875 143.3457183837891 242.9124450683594 143.3460235595703 L 242.9952850341797 143.4015197753906 C 242.9954833984375 143.4016571044922 242.9956207275391 143.4017333984375 242.9958190917969 143.4018707275391 L 243.2985687255859 143.6046752929688 L 242.7419738769531 144.4355010986328 L 234.4339294433594 138.869873046875 L 234.990478515625 138.0390930175781 Z M 251.6066131591797 149.1702728271484 L 253.2727813720703 150.2864532470703 C 253.2727813720703 150.2864532470703 253.2730255126953 150.2866058349609 253.2730255126953 150.2866058349609 L 253.3017272949219 150.3058471679688 C 253.3023529052734 150.3062591552734 253.3032073974609 150.3068237304688 253.3038330078125 150.3072509765625 L 253.4233551025391 150.3873138427734 C 253.4239959716797 150.3877410888672 253.4249114990234 150.3883514404297 253.4255523681641 150.3887939453125 L 253.4327392578125 150.3936004638672 C 253.4348754882813 150.3950347900391 253.4367370605469 150.3962860107422 253.4388885498047 150.3977203369141 L 253.4630279541016 150.4138946533203 C 253.4645385742188 150.4149017333984 253.4655609130859 150.4156036376953 253.4670715332031 150.4166107177734 L 253.5469818115234 150.4701385498047 C 253.5487213134766 150.4712982177734 253.551025390625 150.4728546142578 253.5527801513672 150.4740142822266 L 253.5547943115234 150.4753723144531 C 253.5611419677734 150.4796142578125 253.5675048828125 150.48388671875 253.5738677978516 150.4881439208984 L 253.5765838623047 150.4899597167969 C 253.5901794433594 150.4990844726563 253.603759765625 150.5081787109375 253.6174621582031 150.5173492431641 L 253.6183624267578 150.5179595947266 C 253.6461791992188 150.5365905761719 253.6745758056641 150.5556182861328 253.7027435302734 150.5744781494141 L 253.7034912109375 150.5749816894531 C 253.7605133056641 150.6131896972656 253.8182220458984 150.6518402099609 253.8765563964844 150.69091796875 L 253.8771820068359 150.6913452148438 C 256.3370361328125 152.3392181396484 259.9147033691406 154.7359008789063 259.9147033691406 154.7359008789063 L 259.3580932617188 155.5666809082031 L 251.0500640869141 150.0010833740234 L 251.6066131591797 149.1702728271484 Z M 268.2227478027344 160.3014984130859 C 268.2227478027344 160.3014984130859 269.2034301757813 160.9584503173828 270.4909057617188 161.8209381103516 L 270.4956665039063 161.8241271972656 C 270.5020751953125 161.8284149169922 270.5083923339844 161.8326416015625 270.5148010253906 161.8369445800781 L 270.5150756835938 161.8371276855469 C 270.5221862792969 161.8419036865234 270.5289916992188 161.8464508056641 270.5361022949219 161.8512268066406 L 270.5380249023438 161.8525085449219 C 270.5516052246094 161.8616027832031 270.5646667480469 161.870361328125 270.5783081054688 161.8795013427734 L 270.5850830078125 161.8840179443359 C 270.5869140625 161.88525390625 270.5884399414063 161.8862915039063 270.5903015136719 161.8875274658203 L 270.5939636230469 161.8899841308594 C 270.5969848632813 161.8919982910156 270.5997314453125 161.8938446044922 270.6027526855469 161.8958587646484 L 270.6041870117188 161.8968353271484 C 270.6074523925781 161.8990173339844 270.6108093261719 161.9012603759766 270.6140747070313 161.9034423828125 L 270.6158142089844 161.9046173095703 C 270.61767578125 161.9058685302734 270.6197814941406 161.9072875976563 270.6216430664063 161.9085235595703 L 270.6299438476563 161.9140930175781 C 270.63134765625 161.9150238037109 270.6329040527344 161.9160766601563 270.6343078613281 161.9170074462891 L 276.5308227539063 165.8671112060547 L 275.9743041992188 166.6979064941406 L 267.6661987304688 161.13232421875 L 268.2227478027344 160.3014984130859 Z M 284.8388671875 171.4327239990234 C 284.8388671875 171.4327239990234 287.9034118652344 173.4856567382813 290.3100891113281 175.0978851318359 L 290.3130493164063 175.0998687744141 C 290.3147277832031 175.1009979248047 290.3167114257813 175.1023406982422 290.3184204101563 175.1034698486328 L 290.362548828125 175.1330413818359 C 290.36376953125 175.1338500976563 290.3651123046875 175.1347503662109 290.3663330078125 175.1355590820313 L 290.3717956542969 175.1392211914063 C 290.3727416992188 175.1398620605469 290.3741149902344 175.1407775878906 290.3750610351563 175.1414184570313 L 290.3976135253906 175.1565093994141 C 290.3976135253906 175.1565093994141 290.3978881835938 175.1567230224609 290.3978881835938 175.1567230224609 L 293.14697265625 176.9983215332031 L 292.5904235839844 177.8291320800781 L 284.2823486328125 172.2635498046875 L 284.8388671875 171.4327239990234 Z M 301.4550170898438 182.5639495849609 C 301.4550170898438 182.5639495849609 309.7631225585938 188.1295471191406 309.7631225585938 188.1295471191406 L 309.2065734863281 188.9603576660156 L 300.8984680175781 183.3947296142578 L 301.4550170898438 182.5639495849609 Z M 318.0711669921875 193.6951293945313 L 318.1184997558594 193.7268524169922 C 318.1186218261719 193.7269439697266 318.1188354492188 193.7270660400391 318.1189575195313 193.7271575927734 L 318.1836547851563 193.7705078125 C 318.183837890625 193.7706298828125 318.1840209960938 193.770751953125 318.1842041015625 193.7708740234375 L 318.1926574707031 193.7765350341797 C 318.1932678222656 193.7769317626953 318.1939086914063 193.7773590087891 318.1945190429688 193.7777709960938 L 318.1954345703125 193.7783966064453 C 318.1972045898438 193.7795867919922 318.1990661621094 193.7808380126953 318.2008666992188 193.7820434570313 L 318.2026672363281 193.7832489013672 C 318.2042236328125 193.7842712402344 318.2058715820313 193.7853851318359 318.2074279785156 193.7864379882813 L 318.2097778320313 193.7879943847656 C 318.2102661132813 193.788330078125 318.2106628417969 193.7886047363281 318.211181640625 193.7889404296875 L 318.2203674316406 193.7951049804688 C 318.2205200195313 193.7951965332031 318.2207336425781 193.7953491210938 318.2208862304688 193.7954406738281 L 318.2240600585938 193.7975769042969 C 318.2242126464844 193.7976837158203 318.2242736816406 193.7976989746094 318.2244262695313 193.7978057861328 L 318.2278137207031 193.8000946044922 C 318.2278137207031 193.8000946044922 318.2279052734375 193.8001403808594 318.2279052734375 193.8001403808594 L 318.2310180664063 193.8022308349609 C 318.2315063476563 193.8025512695313 318.2320251464844 193.8029174804688 318.2324829101563 193.80322265625 L 318.2344360351563 193.8045043945313 C 318.2349548339844 193.8048706054688 318.2354125976563 193.80517578125 318.2359619140625 193.8055419921875 L 318.238525390625 193.8072509765625 C 318.2387390136719 193.8074035644531 318.2390747070313 193.8076324462891 318.2393188476563 193.8078002929688 L 318.2487182617188 193.8140869140625 C 318.2496948242188 193.8147430419922 318.2505798339844 193.8153381347656 318.2515563964844 193.8159942626953 L 318.2532043457031 193.8170928955078 C 318.2540893554688 193.8176879882813 318.2549438476563 193.8182525634766 318.255859375 193.8188629150391 L 318.2572326660156 193.8197937011719 C 318.2577514648438 193.8201293945313 318.2582397460938 193.8204498291016 318.2587280273438 193.8207855224609 L 318.2652587890625 193.8251647949219 C 318.2657470703125 193.8255004882813 318.2662658691406 193.8258361816406 318.2667846679688 193.826171875 L 318.2861938476563 193.8392028808594 C 318.2869873046875 193.8397216796875 318.287841796875 193.8403015136719 318.2886352539063 193.8408355712891 L 318.2907104492188 193.8422088623047 C 318.2908935546875 193.8423309326172 318.2911987304688 193.8425445556641 318.2913818359375 193.8426513671875 L 318.2948303222656 193.844970703125 C 318.2954711914063 193.8453979492188 318.2960510253906 193.8457946777344 318.2966918945313 193.8462219238281 L 318.2983703613281 193.8473510742188 C 318.2992858886719 193.8479614257813 318.30029296875 193.8486328125 318.3012084960938 193.8492431640625 L 318.3031005859375 193.8505249023438 C 318.30419921875 193.8512573242188 318.3053588867188 193.8520202636719 318.3064575195313 193.8527526855469 L 318.3168334960938 193.8597259521484 C 318.3173828125 193.8600921630859 318.3179016113281 193.8604278564453 318.3184509277344 193.8608093261719 L 318.3206481933594 193.8622741699219 C 318.3218688964844 193.8630981445313 318.3230590820313 193.8638763427734 318.3242797851563 193.8647003173828 L 318.3522033691406 193.8834075927734 C 318.3533020019531 193.8841400146484 318.3544616699219 193.8849182128906 318.3555603027344 193.8856506347656 L 318.3588256835938 193.8878631591797 C 318.3606567382813 193.8890686035156 318.3627319335938 193.8904571533203 318.3645629882813 193.8916778564453 L 318.373046875 193.8973693847656 C 318.3738708496094 193.8979187011719 318.3746948242188 193.8984985351563 318.3755493164063 193.8990478515625 L 318.3777465820313 193.9005126953125 C 318.3799133300781 193.9019775390625 318.3821411132813 193.9034576416016 318.3843383789063 193.9049377441406 L 318.3930053710938 193.9107360839844 C 318.3935241699219 193.9110870361328 318.3941650390625 193.9115142822266 318.3946838378906 193.911865234375 L 318.3993225097656 193.9149780273438 C 318.4013671875 193.9163360595703 318.4033203125 193.9176483154297 318.4053649902344 193.9190216064453 L 318.4096069335938 193.9218597412109 C 318.4097290039063 193.9219360351563 318.409912109375 193.9220886230469 318.4100341796875 193.9221496582031 L 318.4453430175781 193.94580078125 C 318.4460144042969 193.9462585449219 318.4467163085938 193.9467163085938 318.4473876953125 193.9471740722656 L 318.4516906738281 193.9500579833984 C 318.452392578125 193.9505157470703 318.4532775878906 193.9511260986328 318.4539794921875 193.9515838623047 L 318.4559631347656 193.9529266357422 C 318.4574584960938 193.9539184570313 318.4590148925781 193.9549560546875 318.4605102539063 193.9559631347656 L 318.4609375 193.9562530517578 C 318.4624328613281 193.9572601318359 318.4641723632813 193.9584197998047 318.4656677246094 193.9594268798828 L 318.4672241210938 193.96044921875 C 318.4681396484375 193.9610748291016 318.4691772460938 193.9617767333984 318.4700927734375 193.96240234375 L 318.4733276367188 193.9645538330078 C 318.4873657226563 193.9739532470703 318.5018310546875 193.9836578369141 318.5165405273438 193.9934997558594 L 318.5194702148438 193.9954681396484 C 318.5504150390625 194.0161895751953 318.58251953125 194.0377044677734 318.6162109375 194.0602722167969 L 318.6163330078125 194.0603485107422 C 320.4646606445313 195.2985534667969 326.3792419433594 199.2607727050781 326.3792419433594 199.2607727050781 L 325.8226928710938 200.0915374755859 L 317.5146179199219 194.5259552001953 L 318.0711669921875 193.6951293945313 Z M 334.6872863769531 204.8263702392578 C 334.6872863769531 204.8263702392578 335.9061889648438 205.6428985595703 337.4100341796875 206.6503295898438 L 342.995361328125 210.3919677734375 L 342.4388427734375 211.2227783203125 L 334.1307373046875 205.6571807861328 L 334.6872863769531 204.8263702392578 Z M 351.3034362792969 215.9575958251953 C 351.3034362792969 215.9575958251953 354.7166442871094 218.2441101074219 357.1676330566406 219.8860168457031 L 359.6115112304688 221.523193359375 L 359.0549621582031 222.35400390625 L 350.7468872070313 216.7884063720703 L 351.3034362792969 215.9575958251953 Z M 355.6835632324219 225.1218566894531 L 356.0849609375 226.0377197265625 C 356.0849609375 226.0377197265625 346.9261169433594 230.0520477294922 346.9261169433594 230.0520477294922 L 346.524658203125 229.1361846923828 L 355.6835632324219 225.1218566894531 Z M 337.3657836914063 233.1504974365234 L 337.7672119140625 234.0663604736328 C 337.7672119140625 234.0663604736328 335.1062622070313 235.232666015625 332.6529541015625 236.3079528808594 L 332.6506958007813 236.3089447021484 C 332.6343078613281 236.3161315917969 332.6181030273438 236.3232421875 332.6017150878906 236.3304138183594 L 332.5953369140625 236.3332061767578 C 332.5925598144531 236.3344268798828 332.5902099609375 236.33544921875 332.5874328613281 236.336669921875 L 332.5832824707031 236.3384857177734 C 332.5813293457031 236.3393402099609 332.5790405273438 236.3403472900391 332.5771179199219 236.3412017822266 L 332.5670471191406 236.3456115722656 C 332.5662231445313 236.3459625244141 332.5652465820313 236.3464050292969 332.5644226074219 236.3467559814453 L 328.6083374023438 238.0807037353516 L 328.2068786621094 237.1648101806641 L 337.3657836914063 233.1504974365234 Z M 319.0480346679688 241.1791381835938 L 319.4494323730469 242.0950469970703 L 310.2905578613281 246.1093597412109 L 309.8890991210938 245.1934509277344 L 319.0480346679688 241.1791381835938 Z M 300.7302551269531 249.2077789306641 L 301.1316528320313 250.1236877441406 C 301.1316528320313 250.1236877441406 291.9727783203125 254.1380004882813 291.9727783203125 254.1380004882813 L 291.5713500976563 253.2221374511719 L 300.7302551269531 249.2077789306641 Z M 282.4124755859375 257.2364501953125 L 282.8138732910156 258.1523132324219 C 282.8138732910156 258.1523132324219 273.655029296875 262.1666259765625 273.655029296875 262.1666259765625 L 273.2535705566406 261.2507934570313 L 282.4124755859375 257.2364501953125 Z M 264.0946960449219 265.2650756835938 L 264.49609375 266.1809692382813 C 264.49609375 266.1809692382813 261.8358154296875 267.3469848632813 259.3827514648438 268.4221801757813 L 259.3778381347656 268.42431640625 C 259.362548828125 268.4309997558594 259.3473510742188 268.4376831054688 259.3320922851563 268.4443664550781 L 259.3224182128906 268.4486083984375 C 259.3212890625 268.4490966796875 259.3203125 268.4495239257813 259.3192138671875 268.4500122070313 L 259.3086547851563 268.4546508789063 C 259.308349609375 268.4547729492188 259.3078002929688 268.4550170898438 259.3074951171875 268.4551391601563 L 255.3372344970703 270.1953125 L 254.935791015625 269.2794189453125 L 264.0946960449219 265.2650756835938 Z M 245.7769317626953 273.2937316894531 L 246.1783447265625 274.2096252441406 L 237.0194702148438 278.2239379882813 L 236.6180114746094 277.3080444335938 L 245.7769317626953 273.2937316894531 Z M 227.4591522216797 281.3223571777344 L 227.8605651855469 282.23828125 C 227.8605651855469 282.23828125 218.7017059326172 286.2525939941406 218.7017059326172 286.2525939941406 L 218.3002471923828 285.3367309570313 L 227.4591522216797 281.3223571777344 Z M 209.1413879394531 289.3510437011719 L 209.5427856445313 290.2669067382813 C 209.5427856445313 290.2669067382813 200.3839263916016 294.2812194824219 200.3839263916016 294.2812194824219 L 199.9824676513672 293.3653564453125 L 209.1413879394531 289.3510437011719 Z M 190.8236083984375 297.3796997070313 L 191.2250213623047 298.2955932617188 L 182.0661468505859 302.3098754882813 L 181.6647033691406 301.3939819335938 L 190.8236083984375 297.3796997070313 Z M 172.5058441162109 305.4083251953125 L 172.9072418212891 306.32421875 L 163.7483825683594 310.3385314941406 L 163.346923828125 309.4226379394531 L 172.5058441162109 305.4083251953125 Z M 154.1880645751953 313.4369506835938 L 154.5894775390625 314.3528442382813 C 154.5894775390625 314.3528442382813 145.4306030273438 318.3671875 145.4306030273438 318.3671875 L 145.0291595458984 317.4513244628906 L 154.1880645751953 313.4369506835938 Z M 135.8702850341797 321.4656372070313 L 136.2716979980469 322.3815002441406 C 136.2716979980469 322.3815002441406 127.1128234863281 326.3958129882813 127.1128234863281 326.3958129882813 L 126.7113952636719 325.4799499511719 L 135.8702850341797 321.4656372070313 Z M 117.5525207519531 329.4942626953125 L 117.9539184570313 330.4101867675781 L 108.7950439453125 334.4244689941406 L 108.3936157226563 333.5086059570313 L 117.5525207519531 329.4942626953125 Z M 99.2347412109375 337.5229187011719 L 99.63616943359375 338.4388122558594 L 90.477294921875 342.453125 L 90.07583618164063 341.5372314453125 L 99.2347412109375 337.5229187011719 Z M 80.91696166992188 345.5515441894531 L 81.31838989257813 346.4674682617188 C 81.31838989257813 346.4674682617188 72.15951538085938 350.4817810058594 72.15951538085938 350.4817810058594 L 71.758056640625 349.56591796875 L 80.91696166992188 345.5515441894531 Z M 62.59921264648438 353.5802307128906 L 63.0006103515625 354.49609375 C 63.0006103515625 354.49609375 53.84173583984375 358.5104064941406 53.84173583984375 358.5104064941406 L 53.44027709960938 357.5945434570313 L 62.59921264648438 353.5802307128906 Z M 44.28143310546875 361.6088562011719 L 44.68283081054688 362.5247802734375 L 35.52395629882813 366.5390625 L 35.12252807617188 365.6231689453125 L 44.28143310546875 361.6088562011719 Z M 28.86151123046875 358.8720092773438 L 29.85433959960938 358.9915161132813 L 28.65966796875 368.9198608398438 L 27.66683959960938 368.8004150390625 C 27.66683959960938 368.8004150390625 28.78759765625 359.486328125 28.85806274414063 358.9007873535156 L 28.85833740234375 358.8983154296875 C 28.85928344726563 358.8905639648438 28.86001586914063 358.8844299316406 28.86053466796875 358.8800964355469 L 28.86068725585938 358.8788757324219 C 28.86080932617188 358.8778686523438 28.86093139648438 358.8769836425781 28.86102294921875 358.876220703125 L 28.86105346679688 358.8759460449219 C 28.861083984375 358.8755493164063 28.86114501953125 358.8752136230469 28.86117553710938 358.8748779296875 L 28.86117553710938 358.874755859375 C 28.8612060546875 358.8744812011719 28.86123657226563 358.8742370605469 28.86126708984375 358.8739929199219 L 28.861328125 358.8734741210938 C 28.86135864257813 358.8733215332031 28.86138916015625 358.8731994628906 28.86138916015625 358.8730773925781 L 28.86141967773438 358.8729248046875 C 28.86141967773438 358.8728637695313 28.86141967773438 358.872802734375 28.86141967773438 358.8727416992188 L 28.8614501953125 358.8726806640625 C 28.8614501953125 358.8726196289063 28.8614501953125 358.87255859375 28.8614501953125 358.8724975585938 L 28.86148071289063 358.8724060058594 C 28.86148071289063 358.872314453125 28.86148071289063 358.8722229003906 28.86151123046875 358.8721618652344 L 28.86151123046875 358.8720703125 C 28.86151123046875 358.8720703125 28.86151123046875 358.8720703125 28.86151123046875 358.8720397949219 L 28.86151123046875 358.8720092773438 Z M 31.25091552734375 339.0152587890625 L 32.24374389648438 339.1347351074219 L 31.049072265625 349.0630798339844 L 30.05621337890625 348.9436340332031 L 30.65887451171875 343.935302734375 C 30.65927124023438 343.9319763183594 30.65975952148438 343.927978515625 30.66015625 343.9246520996094 L 30.6612548828125 343.9154663085938 C 30.66140747070313 343.9142456054688 30.66156005859375 343.9130554199219 30.66171264648438 343.9118347167969 L 30.66262817382813 343.9042053222656 C 30.66299438476563 343.9011840820313 30.66339111328125 343.8979187011719 30.66372680664063 343.8948974609375 L 30.66436767578125 343.8896484375 C 30.66482543945313 343.885986328125 30.66522216796875 343.8826293945313 30.6656494140625 343.8789978027344 L 30.66604614257813 343.8757934570313 C 30.66647338867188 343.8721618652344 30.66693115234375 343.8683776855469 30.6673583984375 343.86474609375 L 30.66763305664063 343.8624267578125 C 30.9615478515625 341.4200134277344 31.25091552734375 339.0152587890625 31.25091552734375 339.0152587890625 Z M 33.64028930664063 319.1585083007813 L 34.63314819335938 319.2779541015625 L 33.4384765625 329.2063598632813 L 32.44561767578125 329.0868530273438 L 33.64031982421875 319.1585083007813 Z M 36.02969360351563 299.3017272949219 L 37.02255249023438 299.4212341308594 L 35.82785034179688 309.3495788574219 L 34.83502197265625 309.2301330566406 C 34.83502197265625 309.2301330566406 35.08877563476563 307.121337890625 35.36239624023438 304.8474426269531 L 35.36264038085938 304.8452758789063 C 35.36431884765625 304.8314208984375 35.36599731445313 304.8174743652344 35.36767578125 304.8036193847656 L 35.36788940429688 304.8016052246094 C 35.3681640625 304.7994995117188 35.36849975585938 304.7966613769531 35.36874389648438 304.7945556640625 L 36.02972412109375 299.3017272949219 Z M 38.41909790039063 279.4450073242188 L 39.41192626953125 279.564453125 L 38.21725463867188 289.4928283691406 L 37.22442626953125 289.3733520507813 C 37.22442626953125 289.3733520507813 38.41909790039063 279.4450073242188 38.41909790039063 279.4450073242188 Z M 40.80853271484375 259.5882263183594 L 41.80133056640625 259.7077026367188 L 40.60665893554688 269.6361083984375 L 39.61380004882813 269.5166015625 L 40.2967529296875 263.8411254882813 C 40.29718017578125 263.8375244140625 40.297607421875 263.833984375 40.29803466796875 263.8303833007813 L 40.29928588867188 263.8200073242188 C 40.30010986328125 263.8131103515625 40.3009033203125 263.8066101074219 40.30172729492188 263.7997131347656 L 40.30191040039063 263.7981567382813 C 40.56744384765625 261.5915222167969 40.80853271484375 259.5882263183594 40.80853271484375 259.5882263183594 Z M 43.1978759765625 239.7314605712891 L 44.19073486328125 239.8509521484375 L 42.99606323242188 249.7793121337891 L 42.00320434570313 249.6598663330078 L 43.19790649414063 239.7314605712891 Z M 45.5872802734375 219.8747253417969 L 46.58016967773438 219.9941864013672 L 45.38543701171875 229.9225921630859 L 44.39260864257813 229.8030853271484 C 44.39260864257813 229.8030853271484 44.65286254882813 227.6403198242188 44.930419921875 225.3336029052734 L 44.93063354492188 225.3319549560547 C 44.93112182617188 225.3277282714844 44.93161010742188 225.3237609863281 44.93212890625 225.3195343017578 L 44.934814453125 225.2970886230469 C 44.93670654296875 225.2813873291016 44.9385986328125 225.2656860351563 44.94049072265625 225.2499694824219 L 44.94183349609375 225.2388610839844 C 44.9420166015625 225.2373504638672 44.94223022460938 225.2354431152344 44.94241333007813 225.2339324951172 L 44.94287109375 225.230224609375 C 44.94317626953125 225.2275085449219 44.9434814453125 225.2249755859375 44.94381713867188 225.2222595214844 L 44.945068359375 225.2118072509766 C 44.94589233398438 225.2051544189453 44.94662475585938 225.198974609375 44.94741821289063 225.1923217773438 L 44.94845581054688 225.1838684082031 C 44.949462890625 225.1753997802734 44.950439453125 225.1673889160156 44.95144653320313 225.1589202880859 L 44.95156860351563 225.1579132080078 C 44.9521484375 225.1530609130859 44.95272827148438 225.1481628417969 44.95330810546875 225.1433258056641 L 44.95553588867188 225.1248016357422 C 44.95584106445313 225.1223754882813 44.95608520507813 225.1202392578125 44.95639038085938 225.1178131103516 L 44.95751953125 225.1083068847656 C 44.95758056640625 225.1080017089844 44.95758056640625 225.1080322265625 44.95761108398438 225.1077270507813 L 45.58731079101563 219.8747253417969 Z M 47.97671508789063 200.0179595947266 L 48.96951293945313 200.137451171875 L 47.77484130859375 210.0658111572266 L 46.78201293945313 209.9463653564453 C 46.78201293945313 209.9463653564453 47.97671508789063 200.0179595947266 47.97671508789063 200.0179595947266 Z M 50.36611938476563 180.1612243652344 L 51.35891723632813 180.2806854248047 L 50.16424560546875 190.2090454101563 L 49.17138671875 190.0895843505859 L 49.71707153320313 185.5548400878906 C 49.71719360351563 185.5539245605469 49.71731567382813 185.5526885986328 49.71743774414063 185.5517883300781 L 49.718505859375 185.5430297851563 C 49.71871948242188 185.5412139892578 49.71896362304688 185.5391082763672 49.71917724609375 185.5372924804688 L 49.72036743164063 185.5273742675781 C 49.72128295898438 185.5198211669922 49.72216796875 185.5124359130859 49.72308349609375 185.5048675537109 L 49.72344970703125 185.501708984375 C 49.72445678710938 185.4935607910156 49.7254638671875 185.4851989746094 49.7264404296875 185.4770355224609 L 49.72705078125 185.4718017578125 C 50.03897094726563 182.8798980712891 50.36611938476563 180.1612243652344 50.36611938476563 180.1612243652344 Z M 52.75546264648438 160.3044586181641 L 53.74835205078125 160.4239044189453 L 52.55364990234375 170.3523101806641 L 51.560791015625 170.2328186035156 L 52.7554931640625 160.3044586181641 Z M 55.1448974609375 140.4476928710938 L 56.13775634765625 140.5671691894531 L 54.94302368164063 150.4955444335938 L 53.9501953125 150.3760833740234 C 53.9501953125 150.3760833740234 54.239013671875 147.975830078125 54.53265380859375 145.5355987548828 L 54.533935546875 145.5248413085938 C 54.53436279296875 145.5215148925781 54.53482055664063 145.5174865722656 54.53524780273438 145.5141448974609 L 54.53536987304688 145.5129547119141 C 54.5357666015625 145.5096282958984 54.53619384765625 145.5062713623047 54.53659057617188 145.5029449462891 L 54.5374755859375 145.4955291748047 C 54.53778076171875 145.4931030273438 54.53805541992188 145.4907531738281 54.538330078125 145.4883270263672 L 54.53933715820313 145.4800415039063 C 54.53952026367188 145.4785308837891 54.53970336914063 145.4770355224609 54.53988647460938 145.4755249023438 L 54.54165649414063 145.4608154296875 C 54.54241943359375 145.4544525146484 54.54318237304688 145.4481811523438 54.5439453125 145.4418182373047 L 54.54425048828125 145.4393005371094 C 54.5445556640625 145.4365844726563 54.54489135742188 145.4338684082031 54.54522705078125 145.4311370849609 L 55.1448974609375 140.4476928710938 Z M 57.5343017578125 120.5909423828125 L 58.527099609375 120.7104187011719 L 57.33242797851563 130.6387634277344 L 56.339599609375 130.5193176269531 C 56.339599609375 130.5193176269531 57.5343017578125 120.5909423828125 57.5343017578125 120.5909423828125 Z M 59.9237060546875 100.7341918945313 L 60.91650390625 100.8536376953125 L 59.72183227539063 110.7820434570313 L 58.72897338867188 110.6625366210938 L 59.3704833984375 105.3314208984375 C 59.37081909179688 105.3287048339844 59.37112426757813 105.3261108398438 59.3714599609375 105.3233642578125 L 59.3719482421875 105.3193969726563 C 59.375244140625 105.2919006347656 59.37857055664063 105.2642211914063 59.38189697265625 105.2367553710938 L 59.38259887695313 105.2309265136719 C 59.661376953125 102.9140625 59.9237060546875 100.7341918945313 59.9237060546875 100.7341918945313 Z M 62.31304931640625 80.87741088867188 L 63.30593872070313 80.99691772460938 L 62.11123657226563 90.92526245117188 L 61.11837768554688 90.80581665039063 L 62.31307983398438 80.87741088867188 Z M 64.70248413085938 61.02069091796875 L 65.69534301757813 61.14013671875 L 64.5006103515625 71.06851196289063 L 63.50778198242188 70.94903564453125 C 63.50778198242188 70.94903564453125 63.80642700195313 68.46719360351563 64.1051025390625 65.985107421875 L 64.10519409179688 65.984375 C 64.10968017578125 65.94708251953125 64.11422729492188 65.90924072265625 64.11871337890625 65.87197875976563 L 64.11935424804688 65.86672973632813 C 64.12158203125 65.8482666015625 64.12374877929688 65.83016967773438 64.1259765625 65.81170654296875 L 64.12646484375 65.80767822265625 C 64.12750244140625 65.79888916015625 64.1285400390625 65.79031372070313 64.12960815429688 65.78152465820313 L 64.12966918945313 65.7808837890625 C 64.13018798828125 65.77664184570313 64.130615234375 65.77316284179688 64.131103515625 65.7689208984375 L 64.1368408203125 65.72146606445313 C 64.13723754882813 65.7181396484375 64.13766479492188 65.714599609375 64.1380615234375 65.71127319335938 L 64.138916015625 65.70419311523438 C 64.13912963867188 65.70236206054688 64.13934326171875 65.70059204101563 64.13955688476563 65.69876098632813 L 64.14083862304688 65.688232421875 C 64.14227294921875 65.67611694335938 64.143798828125 65.66342163085938 64.145263671875 65.65130615234375 L 64.14913940429688 65.61911010742188 C 64.14944458007813 65.61669921875 64.14974975585938 65.6141357421875 64.1500244140625 65.61172485351563 L 64.70248413085938 61.02069091796875 Z M 67.09188842773438 41.16390991210938 L 68.08468627929688 41.28335571289063 L 66.8900146484375 51.21176147460938 L 65.89718627929688 51.09228515625 C 65.89718627929688 51.09228515625 67.09188842773438 41.16390991210938 67.09188842773438 41.16390991210938 Z M 68.8291015625 26.72689819335938 L 77.13717651367188 32.29251098632813 L 76.58059692382813 33.12332153320313 L 69.62713623046875 28.46517944335938 L 69.2794189453125 31.35501098632813 L 68.28656005859375 31.23553466796875 L 68.8291015625 26.72689819335938 Z" stroke="none" fill="#5d5d5d"/>
    </g>
    <g id="Groupe_66" data-name="Groupe 66" transform="translate(321 -34)">
      <ellipse id="Ellipse_55" data-name="Ellipse 55" cx="49.5" cy="49.5" rx="49.5" ry="49.5" transform="translate(1068 309)" fill="rgba(255,255,255,0.94)"/>
      <g id="Groupe_65" data-name="Groupe 65" transform="translate(-42 30.328)">
        <rect id="Rectangle_30" data-name="Rectangle 30" width="5.055" height="38.417" rx="2.527" transform="translate(1150.363 318.254)" fill="#3a2d63"/>
        <rect id="Rectangle_31" data-name="Rectangle 31" width="5.055" height="51.56" rx="2.527" transform="translate(1177.66 305.112)" fill="#3a2d63"/>
        <rect id="Rectangle_32" data-name="Rectangle 32" width="4.044" height="61.67" rx="2.022" transform="translate(1204.956 295.002)" fill="#3a2d63"/>
        <rect id="Rectangle_33" data-name="Rectangle 33" width="4.044" height="61.67" rx="2.022" transform="matrix(0.454, 0.891, -0.891, 0.454, 1171.865, 294.872)" fill="#3a2d63"/>
        <rect id="Rectangle_34" data-name="Rectangle 34" width="4.044" height="14.154" rx="2.022" transform="matrix(0.017, 1, -1, 0.017, 1172.577, 294.834)" fill="#3a2d63"/>
        <rect id="Rectangle_35" data-name="Rectangle 35" width="4.044" height="14.154" rx="2.022" transform="matrix(0.839, 0.545, -0.545, 0.839, 1170.728, 294.998)" fill="#3a2d63"/>
      </g>
    </g>
    <g id="Groupe_76" data-name="Groupe 76" transform="translate(286 294)">
      <ellipse id="Ellipse_55-2" data-name="Ellipse 55" cx="49.5" cy="49.5" rx="49.5" ry="49.5" transform="translate(1068 309)" fill="rgba(255,255,255,0.92)"/>
      <g id="Groupe_150" data-name="Groupe 150" transform="translate(-26 -9.272)">
        <g id="Groupe_79" data-name="Groupe 79" transform="translate(1165.926 344.863)">
          <g id="Groupe_77" data-name="Groupe 77" transform="translate(18.049 0)">
            <path id="Tracé_5450" data-name="Tracé 5450" d="M3.008,0A3.008,3.008,0,0,1,6.016,3.008V18.049a3.008,3.008,0,1,1-6.016,0V3.008A3.008,3.008,0,0,1,3.008,0Z" transform="matrix(0.875, 0.485, -0.485, 0.875, 10.209, 0.227)" fill="#3a2d63"/>
            <rect id="Rectangle_121" data-name="Rectangle 121" width="6.016" height="21.057" rx="3.008" transform="matrix(0.891, -0.454, 0.454, 0.891, 7.54, 2.731)" fill="#3a2d63"/>
          </g>
          <g id="Groupe_78" data-name="Groupe 78" transform="translate(0 0)">
            <path id="Tracé_5450-2" data-name="Tracé 5450" d="M3.008,21.057a3.008,3.008,0,0,0,3.008-3.008V3.008A3.008,3.008,0,1,0,0,3.008V18.049A3.008,3.008,0,0,0,3.008,21.057Z" transform="matrix(0.875, -0.485, 0.485, 0.875, 0, 2.917)" fill="#9790ae"/>
            <rect id="Rectangle_121-2" data-name="Rectangle 121" width="6.016" height="21.057" rx="3.008" transform="matrix(0.891, 0.454, -0.454, 0.891, 17.1, 0.068)" fill="#9790ae"/>
          </g>
        </g>
        <g id="Groupe_65-2" data-name="Groupe 65" transform="translate(1087.285 332.317) rotate(-20)">
          <rect id="Rectangle_33-2" data-name="Rectangle 33" width="9.024" height="48.131" rx="4.512" transform="matrix(0.454, 0.891, -0.891, 0.454, 42.885, 37.506)" fill="#3a2d63"/>
          <rect id="Rectangle_35-2" data-name="Rectangle 35" width="3.008" height="21.057" rx="1.504" transform="matrix(0.454, 0.891, -0.891, 0.454, 47.679, 38.512)" fill="#3a2d63"/>
          <rect id="Rectangle_122" data-name="Rectangle 122" width="13.537" height="15.041" rx="6.768" transform="translate(64.695 35.509)" fill="#9790ae"/>
          <g id="Ellipse_57" data-name="Ellipse 57" transform="translate(53.965 0) rotate(20)" fill="none" stroke="#3a2d63" stroke-width="3">
            <circle cx="22.561" cy="22.561" r="22.561" stroke="none"/>
            <circle cx="22.561" cy="22.561" r="21.061" fill="none"/>
          </g>
        </g>
      </g>
    </g>
    <g id="Groupe_67" data-name="Groupe 67" transform="translate(1702.268 404.232)">
      <path id="Tracé_5506" data-name="Tracé 5506" d="M49.5,0C77.721.54,99,22.162,99,49.5a49.5,49.5,0,0,1-99,0C0,22.162,21.279-.54,49.5,0Z" transform="translate(-21.268 53.768)" fill="rgba(255,255,255,0.94)"/>
      <g id="International_business" data-name="International business" transform="translate(-16 51.796)">
        <g id="Groupe_75" data-name="Groupe 75" transform="translate(0)" clip-path="url(#clip-path)">
          <path id="Tracé_5435" data-name="Tracé 5435" d="M809.112,665.061c-.33-1.244-.122-2.588-.493-3.819a8.435,8.435,0,0,0-1.769-2.825,27.69,27.69,0,0,0,3.247-2.733c.32-.315,4.378,2.856,4.8,3.2.91.735,1.224,1.234,2.374,1.264,1.041.028,2.06-.035,3.1.084a7.355,7.355,0,0,1,2.376.6,3.394,3.394,0,0,1,1.707,1.7,4.535,4.535,0,0,1,.259,1.694,6.3,6.3,0,0,1-.279,2.122,5.259,5.259,0,0,1-3.51,3.064C817.2,670.561,810.3,669.532,809.112,665.061Z" transform="translate(-770.308 -602.274)" fill="#ffcaca"/>
          <path id="Tracé_5436" data-name="Tracé 5436" d="M358.607,561.446c-2.923,1.416-5.813,3.2-8.77,4.444a9.114,9.114,0,0,1-8.3-.537c-1.426-.914-2.859-2.005-4.548-2.135a8.653,8.653,0,0,0-4.449,1.325l-8.429,4.3c-.447.228-.974.635-.809,1.109.127.366.585.472.97.522.75.1,1.51.167,2.256.292.969.162,1.156.088.728.917-.595,1.152-2.188,2.288-3.126,3.176a63.6,63.6,0,0,1-6.878,5.657,10.888,10.888,0,0,1-3.511,1.851c-.6.154-1.369.342-1.476.956a1.271,1.271,0,0,0,.533,1.078,4.749,4.749,0,0,0,3.362,1.2,2.636,2.636,0,0,0,2.285,1.861c1.4.1,2.307-.394,3.236.887a3.8,3.8,0,0,0,2.638,1.4,24.41,24.41,0,0,0,5.807-.213,40.02,40.02,0,0,0,6.344-1.411,99.838,99.838,0,0,0,11.864-4.7c1.889-.847,3.908-1.811,4.892-3.633a9,9,0,0,1,.872-1.6,4.634,4.634,0,0,1,1.533-1.051l7.216-3.627a.518.518,0,0,0,.322-.808Z" transform="translate(-268.646 -515.716)" fill="#e6a1a1"/>
          <path id="Tracé_5437" data-name="Tracé 5437" d="M602.963,546.808a13.421,13.421,0,0,0,4.721-.949l3.32-1a4.082,4.082,0,0,1,1.5-.252,4.126,4.126,0,0,1,2.413,1.532l10.24,10.631a8.315,8.315,0,0,1-5.918.693,18.574,18.574,0,0,1-4.664-1.923c-1.514-.8-2.326.229-3.549,1.276-3.124,2.674-7.751,2.806-11.723,1.743-2.354-.63-4.879-1.725-6.343-3.757-1.381-1.916-3.468-3.3-5.059-5.105a.944.944,0,0,1-.156-1.382,41.832,41.832,0,0,1,5.328-7.2,91.494,91.494,0,0,0,8.4,5.25A3.708,3.708,0,0,0,602.963,546.808Z" transform="translate(-552.919 -497.043)" fill="#ffcaca"/>
          <path id="Tracé_5438" data-name="Tracé 5438" d="M530.131,807.977a16.286,16.286,0,0,1-2.359.836,15.693,15.693,0,0,1-8.1.164c-1.652-.527-1.763-2.549-1.657-3.994a16.157,16.157,0,0,1,.423-2.539c.187-.789.074-2.061.7-2.621.6-.537,1.288-.188,1.81.215.169-.391.138-.864.334-1.261a1.643,1.643,0,0,1,1.045-.785c1.361-.394,2.822.653,3.641,1.666a.405.405,0,0,0,.251.184c.135.011.242-.126.259-.26a1.211,1.211,0,0,0-.058-.4c-.436-2.006,1.923-2.134,3.042-1.2.476.4.883,1.252,1.389,1.454.064-.467-.243-.833-.256-1.3a1.179,1.179,0,0,1,1.4-1.015,2.958,2.958,0,0,1,1.616,1.075c.714.788,2.467,2.613,2.3,3.767-.175,1.194-1.938,1.927-2.583,2.845-.249.354-.416.758-.64,1.128A5.652,5.652,0,0,1,530.131,807.977Z" transform="translate(-458.028 -732.224)" fill="#ffcaca"/>
          <path id="Tracé_5439" data-name="Tracé 5439" d="M205.466,531.009c-.16.071-.34.165-.379.337a.57.57,0,0,0,.1.379,156.347,156.347,0,0,0,13.4,20.778l11.465-6.705c.529-.31-3.681-9.774-4.1-10.708q-1.21-2.69-2.577-5.306c-.761-1.457-1.446-3.523-2.618-4.69a.928.928,0,0,0-.555-.319,1.053,1.053,0,0,0-.589.21,27.659,27.659,0,0,1-7.147,2.932C209.994,528.587,207.813,529.968,205.466,531.009Z" transform="translate(-126.771 -482.025)" fill="#3a2d63"/>
          <path id="Tracé_5440" data-name="Tracé 5440" d="M-64.384,310.79q-1.057.514-2.117,1a190.366,190.366,0,0,0,10.489,18.434q1.416,2.195,2.892,4.35c1.119,1.635,1.482,3.231,3.544,2.457a50.4,50.4,0,0,0,9.107-5c3.257-2.071,16.486-15.142,16.486-15.142s9.514-13.008,3.515-16.694-22.258-.8-27.513,1.951C-53.406,305-58.868,308.11-64.384,310.79Z" transform="translate(147.894 -265.889)" fill="#f3f0eb"/>
          <path id="Tracé_5441" data-name="Tracé 5441" d="M898.2,547.011a58.243,58.243,0,0,0,4.823-5.565c.923-1.206,1.9-2.368,2.794-3.6a21.972,21.972,0,0,0,1.248-1.9,7.017,7.017,0,0,0,.5-.93c.219-.566.256-.432-.071-.886-.821-1.14-2.725-2.1-3.884-2.88-1.029-.693-3.939-3.3-5.073-2.074-3.792,4.1-5.98,9.388-9.2,13.907a49.1,49.1,0,0,0,7.109,5.615Q897.341,547.876,898.2,547.011Z" transform="translate(-860.021 -485.773)" fill="#f3f0eb"/>
          <path id="Tracé_5442" data-name="Tracé 5442" d="M938.312,300.27l-.591.634a.908.908,0,0,1-1.252.311c-8.659-3.285-14.286-6.366-21.329-14.841s-9.763-12.264-6.844-19.059,22.9,3.694,32.394,10.082c3.1,2.085,6.343,3.818,9.539,5.725,1.861,1.11.877,1.672-.219,3.252-1.065,1.535-2.139,3.057-3.294,4.527C944.125,294.2,941.179,297.208,938.312,300.27Z" transform="translate(-905.015 -237.394)" fill="#3a2d63"/>
          <path id="Tracé_5443" data-name="Tracé 5443" d="M843.124,749.936a9.751,9.751,0,0,1-6.981-.966" transform="translate(-791.094 -687.997)" fill="none" stroke="#b58a8a" stroke-miterlimit="10" stroke-width="1"/>
          <path id="Tracé_5444" data-name="Tracé 5444" d="M554.986,823.494a13.7,13.7,0,0,1,2.088,4.738" transform="translate(-482.19 -756.463)" fill="none" stroke="#b58a8a" stroke-miterlimit="10" stroke-width="1"/>
          <path id="Tracé_5445" data-name="Tracé 5445" d="M630.089,829.847a15.274,15.274,0,0,1,.729,5.5" transform="translate(-562.059 -762.299)" fill="none" stroke="#b58a8a" stroke-miterlimit="10" stroke-width="1"/>
          <path id="Tracé_5446" data-name="Tracé 5446" d="M694.441,832.2a16.613,16.613,0,0,1,.595,7.235" transform="translate(-631.646 -764.46)" fill="none" stroke="#b58a8a" stroke-miterlimit="10" stroke-width="1"/>
          <path id="Tracé_5447" data-name="Tracé 5447" d="M768.658,807.548a18.59,18.59,0,0,0,10.017-4.557" transform="translate(-721.16 -737.626)" fill="none" stroke="#724f61" stroke-miterlimit="10" stroke-width="1"/>
          <path id="Tracé_5448" data-name="Tracé 5448" d="M736.77,862.6a15.954,15.954,0,0,0,8.268-1.576" transform="translate(-684.93 -790.945)" fill="none" stroke="#724f61" stroke-miterlimit="10" stroke-width="1"/>
          <path id="Tracé_5449" data-name="Tracé 5449" d="M2.14,0A2.14,2.14,0,1,1,0,2.14,2.14,2.14,0,0,1,2.14,0Z" transform="translate(27.109 57.308)" fill="#f3f0eb"/>
          <ellipse id="Ellipse_51" data-name="Ellipse 51" cx="1.327" cy="1.327" rx="1.327" ry="1.327" transform="translate(97.608 66.412)" fill="#3a2d63"/>
          <ellipse id="Ellipse_52" data-name="Ellipse 52" cx="1.327" cy="1.327" rx="1.327" ry="1.327" transform="translate(101.194 64.12)" fill="#3a2d63"/>
          <ellipse id="Ellipse_53" data-name="Ellipse 53" cx="1.327" cy="1.327" rx="1.327" ry="1.327" transform="translate(104.608 61.437)" fill="#3a2d63"/>
        </g>
      </g>
    </g>
  </g>
</svg>
