<svg xmlns="http://www.w3.org/2000/svg" width="81.985" height="81.985" viewBox="0 0 81.985 81.985">
  <g id="tomates-de-france" transform="translate(0)">
    <path id="Tracé_41" data-name="Tracé 41" d="M0,0H81.985V81.985H0Z" fill="#fff" fill-rule="evenodd"/>
    <path id="Tracé_42" data-name="Tracé 42" d="M41.942,87.763C66.367,87.752,82.409,76.356,82.409,63.1S65.833,38.689,42.485,38.689,2.834,49.988,2.834,63.241,19.341,87.772,41.942,87.763Z" transform="translate(-1.629 -22.233)" fill="#fff" stroke="#000" stroke-miterlimit="2.613" stroke-width="1.253" fill-rule="evenodd"/>
    <path id="Tracé_43" data-name="Tracé 43" d="M84.012,94.9C78.881,103.46,65.3,109.511,49,109.511c-16.15,0-29.952-6.07-35.3-14.5,5.4-8.37,19.137-14.431,35.167-14.431C64.911,80.579,78.661,86.519,84.012,94.9Z" transform="translate(-7.872 -46.306)" fill="#cc2132" fill-rule="evenodd"/>
    <path id="Tracé_44" data-name="Tracé 44" d="M81.652,71.568c-3.518-8.691-18.79-19.649-36.532-19.649-18.653,0-31.821,10.792-35.948,19.665a19.612,19.612,0,0,1-1.146-5.346C8.026,54.054,24.851,43.9,45.605,43.9s37.443,10.15,37.443,22.334A17.5,17.5,0,0,1,81.652,71.568Z" transform="translate(-4.612 -25.23)" fill="#0382c7" fill-rule="evenodd"/>
    <path id="Tracé_45" data-name="Tracé 45" d="M75.358,82.9c-1.5-4.224-9.164-10.259-18.479-10.108,5.108,2.263,10.667,5.13,13.371,9.2a24.5,24.5,0,0,0-14.423,3.62,50.315,50.315,0,0,1,15.024-.151c1.051,1.81,3,4.979,3.606,7.693a19.958,19.958,0,0,0,.451-7.09,41.1,41.1,0,0,1,12.77,5.884,16.4,16.4,0,0,0-7.212-7.091,39.093,39.093,0,0,1,12.019-9.5c-6.461.755-13.822,4.526-17.127,7.544Z" transform="translate(-32.083 -41.829)" fill="#78b75e" fill-rule="evenodd"/>
    <path id="Tracé_46" data-name="Tracé 46" d="M50.52,106.649c3.315-1.627,11.9-1.142,16.289.356-6.2.184-9.067.489-11.727,1.248-2.487.88-6.912-.45-4.561-1.6Z" transform="translate(-28.649 -60.705)" fill="#e09580" fill-rule="evenodd"/>
    <path id="Tracé_47" data-name="Tracé 47" d="M15.312,63.4l.6.32c.057-.11.125-.249.2-.419s.122-.262.129-.276l.677.36q-.057.108-.19.324t-.2.341l.475.253.076.04a2.117,2.117,0,0,0,.607.248q.182.022.307-.214A.653.653,0,0,0,18.073,64l.642.342a1.767,1.767,0,0,1-.045.354,1.4,1.4,0,0,1-.125.323.874.874,0,0,1-.586.511,1.413,1.413,0,0,1-.888-.218q-.261-.141-.518-.286l-.447-.249q-.236-.126-.477-.242-.2-.1-.481-.234.088-.3.128-.506a1.989,1.989,0,0,0,.036-.4Zm6.438-4.867a.4.4,0,0,1,.16-.374q.385-.3.852.311a1.052,1.052,0,0,1,.245.532.407.407,0,0,1-.162.376q-.381.295-.849-.314a1.066,1.066,0,0,1-.247-.53Zm.762-1.256a1.413,1.413,0,0,0-1.6,1.247,1.57,1.57,0,0,0,.355,1.106,1.554,1.554,0,0,0,.978.631,1.413,1.413,0,0,0,1.6-1.247,1.573,1.573,0,0,0-.355-1.106A1.554,1.554,0,0,0,22.512,57.278Zm9.65-1.769a2.906,2.906,0,0,0-.424.222q-.162-.518-.365-1.022l-.092-.229a5.2,5.2,0,0,0-.251-.551.219.219,0,0,0-.305-.114.585.585,0,0,0-.3.37l.127.289.23.582q.189.468.41.9a2.945,2.945,0,0,0-.459.137,2.874,2.874,0,0,0-.42.221q-.078-.25-.168-.5-.1-.28-.2-.53l-.1-.239a3.14,3.14,0,0,0-.277-.575.194.194,0,0,0-.254-.077q-.189.077-.269.463l.238.615q.245.606.476,1.063a2.881,2.881,0,0,0-.454.135,2.929,2.929,0,0,0-.419.22q-.163-.411-.313-.827t-.315-.832q-.213-.539-.47-1.06a2.112,2.112,0,0,0,.811-.33l.178.454a.942.942,0,0,1,.523-.808.685.685,0,0,1,.755.17,1.192,1.192,0,0,1,.639-.743.656.656,0,0,1,.687.014,1.319,1.319,0,0,1,.356.422q.115.226.28.636l.086.213.077.192q.122.3.208.5c.057.132.133.291.23.479a2.78,2.78,0,0,0-.454.135Zm6.9-3.007a1,1,0,0,0,.175-.143l.027.112a.781.781,0,0,1-.042.5.42.42,0,0,1-.3.244.257.257,0,0,1-.2-.033.262.262,0,0,1-.106-.175.3.3,0,0,1,.158-.33l.293-.178Zm1.389,1.114a6.3,6.3,0,0,1-.3-1.063l-.136-.74a1.108,1.108,0,0,0-.469-.8,1.431,1.431,0,0,0-1-.077,2.411,2.411,0,0,0-.86.364l.138.7a1.474,1.474,0,0,1,.725-.419q.486-.1.554.247l.008.04a1.151,1.151,0,0,1-.259.157q-.144.064-.482.219a1.174,1.174,0,0,0-.507.408.865.865,0,0,0-.087.664.909.909,0,0,0,.333.583.753.753,0,0,0,.622.116,1.077,1.077,0,0,0,.775-.64,1.414,1.414,0,0,0,.129.4,2.214,2.214,0,0,1,.393-.119,2.26,2.26,0,0,1,.422-.043ZM46.8,49.6l.034.682c.123-.006.277-.019.462-.038l.3-.029.038.768q-.121.006-.374,0-.2,0-.394,0l.027.539,0,.086a2.145,2.145,0,0,0,.1.65q.074.169.341.155a.646.646,0,0,0,.359-.127l.036.728a1.766,1.766,0,0,1-.326.143,1.4,1.4,0,0,1-.34.057.868.868,0,0,1-.737-.244,1.426,1.426,0,0,1-.268-.877q-.013-.3-.02-.594-.006-.257-.016-.514T46,50.453q-.021-.226-.046-.535.3-.078.5-.148A1.9,1.9,0,0,0,46.8,49.6Zm8.529,1.787-.852-.083q.094-.429.477-.392Q55.322,50.947,55.334,51.386Zm.752.489a1.733,1.733,0,0,0-.228-1.15,1.1,1.1,0,0,0-.852-.5A1.227,1.227,0,0,0,54,50.549a1.606,1.606,0,0,0-.47,1.053,1.567,1.567,0,0,0,.29,1.167,1.465,1.465,0,0,0,1.061.522,2.5,2.5,0,0,0,.987-.111l.07-.726a1.771,1.771,0,0,1-.832.132.847.847,0,0,1-.536-.216.54.54,0,0,1-.156-.456l0-.028,1.655.161.02-.171Zm8.169.014-.175.666a1.8,1.8,0,0,0-.786-.487c-.26-.069-.411-.023-.453.135q-.033.122.192.253c.151.088.311.177.484.271a1.066,1.066,0,0,1,.4.416.767.767,0,0,1,.026.535.946.946,0,0,1-.533.649,1.463,1.463,0,0,1-1.009.036,2,2,0,0,1-.91-.5l.16-.611a2.81,2.81,0,0,0,.907.448q.413.11.473-.118a.189.189,0,0,0-.076-.231q-.22-.132-.45-.244A1.33,1.33,0,0,1,62,52.694a.746.746,0,0,1-.071-.642.85.85,0,0,1,.471-.6,1.35,1.35,0,0,1,.911-.017A3.092,3.092,0,0,1,64.256,51.889ZM75.72,58.228l-.2.3q-.545.759-.924.485a.376.376,0,0,1-.158-.351,1.03,1.03,0,0,1,.219-.51,1.152,1.152,0,0,1,.451-.41.4.4,0,0,1,.412.044A.526.526,0,0,1,75.72,58.228Zm1.354-1.547q-.089-.083-.174-.169-.269.448-.574.873l-.16.216a.93.93,0,0,0-.4-.594.994.994,0,0,0-.93-.128,1.88,1.88,0,0,0-.939.743,1.68,1.68,0,0,0-.366,1.048,1,1,0,0,0,.428.8.86.86,0,0,0,.9.067,2.872,2.872,0,0,0-.208.358,3.192,3.192,0,0,1,.385.222,1.438,1.438,0,0,1,.143.118q.068.064.153.153.188-.345.395-.666t.8-1.14l.208-.289q.157-.219.47-.621t.461-.608l-.194-.1a1.607,1.607,0,0,1-.4-.282Zm4.848,7.2-.473-.716a.417.417,0,0,1,.6.125q.2.3-.131.591Zm.1.9a1.723,1.723,0,0,0,.744-.9,1.106,1.106,0,0,0-.151-.98,1.228,1.228,0,0,0-.889-.581,1.59,1.59,0,0,0-1.11.3,1.56,1.56,0,0,0-.718.963,1.48,1.48,0,0,0,.266,1.155,2.5,2.5,0,0,0,.709.7l.6-.4a1.786,1.786,0,0,1-.628-.566.855.855,0,0,1-.17-.554.538.538,0,0,1,.253-.41l.024-.016.92,1.39.145-.09Zm-53.1,14.234L27.936,80.2,26.51,79.2q-.856-.6-2.018-1.382l-.678.82,1.288.883q.567.383,1.122.74l.9.576-.972,1.176-2.216-1.533-1.058-.7-.363.439q-.348.432-.678.878-.363.49-.747.962c-.159-.139-.319-.272-.483-.4s-.344-.256-.539-.387a11.566,11.566,0,0,0-1.112-.658q.314-.379,1.136-1.278t1.161-1.309q.414-.5,1.091-1.416t.991-1.294L25.371,76.7q1.295.875,2.124,1.407t1.419.905Zm3.522,2.871,1.577.486a3.81,3.81,0,0,1,1,.419.391.391,0,0,1,.148.5q-.221.592-1.56.179l-1.577-.487.41-1.095ZM30.119,81.1q-.262.841-.419,1.263-.436,1.058-.8,1.951t-.717,1.827q.32.06.637.131c.135.031.357.1.668.191.175.054.377.125.607.213s.424.166.585.236q.128-.341.29-.937t.17-.614l.413-1.1,1.123.346.4,1.526a7.928,7.928,0,0,1,.242,1.6q.507.106.751.166t.793.23q.322.1.71.239.347.124.685.272-.36-.963-.541-1.58l-.577-1.911q2.01.36,2.561-1.111a1.392,1.392,0,0,0-.318-1.571,5.525,5.525,0,0,0-2.3-1.181l-4.551-1.4c-.1.256-.231.666-.405,1.225ZM45.29,87.2l-2.007-.192,1.3-2.279L45.29,87.2Zm-1.846-3.876q-.382-.046-.761-.111a16.335,16.335,0,0,1-1.127,2.244q-.918,1.625-2.506,4.144.986.017,1.5.066.539.051,1.309.2a7.258,7.258,0,0,1,.727-1.619l3.1.3a7.818,7.818,0,0,1,.352,1.721q.785,0,1.325.051c.226.022.451.049.675.083s.494.079.809.134q-1.023-2.855-1.546-4.577a15.886,15.886,0,0,1-.591-2.36q-.693-.024-1.385-.084l-.188-.018-.439-.042-.439-.043q-.407-.037-.813-.085Zm11.431,6.8q-.3-.014-.608,0-.341.013-.617.037-.514.046-.732.08c-.145.023-.375.064-.689.125q-.05-.434-.1-1.345-.037-.693-.109-1.383l-.071-.614q-.064-.547-.242-1.657T51.462,83.7q.482,0,.991-.027.393-.023.786-.057l.188-.017q.226-.02.5-.05t.807-.145l3.642,4.232q-.094-.819-.251-1.628t-.32-1.621q-.165-.824-.213-1.24c.219,0,.466-.005.739-.014a12.078,12.078,0,0,0,1.25-.1c.116-.017.319-.057.607-.122q.089.775.194,2.014T60.5,86.3q.072.625.239,1.8t.2,1.484q-.354-.01-.709.007c-.261.011-.491.026-.692.043-.36.032-.616.061-.77.084s-.4.066-.751.13l-3.952-4.279q.1.868.254,1.66t.326,1.617q.172.822.224,1.285Zm13.9-9.622.564,1.483a5.118,5.118,0,0,0-2.048.146A2.3,2.3,0,0,0,65.9,83.147a1.768,1.768,0,0,0-.083,1.586,1.948,1.948,0,0,0,1.173,1.2,2.955,2.955,0,0,0,1.936-.022,4.283,4.283,0,0,0,1.68-1.007l.56,1.474a5.434,5.434,0,0,1-.933.557,8.856,8.856,0,0,1-1.165.438,6.218,6.218,0,0,1-3.508.123,3.057,3.057,0,0,1-2.2-1.913,2.813,2.813,0,0,1,.416-2.866,5.483,5.483,0,0,1,2.862-1.891,7.365,7.365,0,0,1,2.142-.316Zm7.36-5.289,1,1.174-1.437.969q-.863.582-2.009,1.378l.7.813,1.282-.88q.558-.387,1.088-.774t.851-.621l1,1.166-2.223,1.51-1.03.729.868,1.017,1.612-1.109q.481-.334.955-.676t.973-.713l1.029,1.2q-.42.292-1.606,1.087-.857.572-1.706,1.156l-2.317,1.623q-.309-.361-1.028-1.3t-1.078-1.356q-.419-.489-1.214-1.327t-1.123-1.222l2.014-1.4q1.276-.887,2.063-1.464T76.136,75.215Z" transform="translate(-8.705 -28.503)" fill="#fff" fill-rule="evenodd"/>
  </g>
</svg>
